<svg width="61" height="81" viewBox="0 0 61 81" fill="none" xmlns="http://www.w3.org/2000/svg">
<path d="M2.92578 43.4236H59.1745V51.2135H2.92578V43.4236Z" fill="#875A3B"/>
<path d="M2.92578 38.0828H59.1745V43.4237H2.92578V38.0828Z" fill="#196CA2"/>
<path d="M5.87633 56.8202C5.87633 58.6997 4.99945 60.2184 3.91766 60.2184C2.83586 60.2184 1.95898 58.6933 1.95898 56.8202V23.4837C1.95898 21.6042 2.83586 20.0854 3.91766 20.0854C4.99945 20.0854 5.87633 21.6105 5.87633 23.4837V56.8202Z" fill="#875A3B"/>
<path d="M3.91758 23.7873C5.81261 23.7873 7.34883 21.7474 7.34883 19.2311C7.34883 16.7147 5.81261 14.6748 3.91758 14.6748C2.02255 14.6748 0.486328 16.7147 0.486328 19.2311C0.486328 21.7474 2.02255 23.7873 3.91758 23.7873Z" fill="#875A3B"/>
<path d="M17.614 33.9251C17.2327 33.6404 17.1946 31.7799 16.251 30.9193C15.5743 30.3055 13.7062 29.3879 11.7666 29.198C9.97468 29.0272 8.11609 29.5398 7.42984 29.9637C6.39093 30.6092 6.12882 32.438 5.71898 32.6342C5.18523 32.8937 4.76585 33.3493 4.74202 33.9821C4.72296 34.5137 5.04226 34.7858 5.40921 35.3047C5.68085 35.678 6.08593 37.3044 6.72929 37.8423C7.36312 38.3675 9.19312 38.7535 11.1661 38.9687C13.1534 39.1838 15.2788 39.2281 15.9746 38.8421C16.6751 38.4498 17.2756 36.9373 17.5901 36.6209C18.0191 36.1906 18.3669 35.9944 18.4098 35.4629C18.467 34.8301 18.1096 34.2922 17.614 33.9251Z" fill="#40C0E7"/>
<path d="M59.6898 56.8202C59.6898 58.6997 58.8129 60.2184 57.7311 60.2184C56.6493 60.2184 55.7725 58.6933 55.7725 56.8202V23.4837C55.7725 21.6042 56.6493 20.0854 57.7311 20.0854C58.8129 20.0854 59.6898 21.6105 59.6898 23.4837V56.8202Z" fill="#875A3B"/>
<path d="M21.0066 33.501C21.0066 33.501 17.9518 33.4757 17.9518 37.8421C17.9518 39.4747 17.9375 44.1132 17.9375 47.3406C17.9375 50.3464 19.7723 52.7765 22.0312 52.7765H54.933C55.5335 52.7765 56.0244 52.1247 56.0244 51.3273V34.9501C56.0244 34.1528 55.5335 33.501 54.933 33.501H21.0066Z" fill="#BDCF46"/>
<path d="M21.9649 52.8019H54.8668C55.4672 52.8019 55.9581 52.1501 55.9581 51.3527V43.5818H17.876V47.3723C17.8712 50.3719 19.706 52.8019 21.9649 52.8019Z" fill="#98AA30"/>
</svg>
