<svg width="61" height="81" viewBox="0 0 61 81" fill="none" xmlns="http://www.w3.org/2000/svg">
<path d="M55.8194 55.2382C55.8194 59.8893 54.8377 63.6546 53.6368 63.6546C52.4311 63.6546 51.4541 59.8893 51.4541 55.2382C51.4541 50.587 52.4311 46.8154 53.6368 46.8154C54.8377 46.8154 55.8194 50.5933 55.8194 55.2382Z" fill="#2F2F2F"/>
<path d="M52.6885 62.8255C52.6885 62.8255 53.2699 64.0595 53.8989 64.4772C55.3239 65.4201 57.3064 65.072 58.4978 62.9205L57.8592 57.7947L53.8275 58.8135L52.6885 62.8255Z" fill="#2F2F2F"/>
<path d="M11.2996 65.9012C11.2996 70.8687 9.97953 74.8998 8.35922 74.8998C6.73414 74.8998 5.41406 70.8687 5.41406 65.9012C5.41406 60.9273 6.73414 56.8962 8.35922 56.8962C9.97953 56.9026 11.2996 60.9273 11.2996 65.9012Z" fill="#2F2F2F"/>
<path d="M7.07715 74.02C7.07715 74.02 7.85871 75.3426 8.71652 75.7856C10.6371 76.7918 13.3058 76.4184 14.9118 74.1276L14.0493 68.6475L8.61645 69.7359L7.07715 74.02Z" fill="#2F2F2F"/>
<path d="M16.6561 65.9012C16.6561 70.8687 15.336 74.8998 13.7157 74.8998C12.0906 74.8998 10.7705 70.8687 10.7705 65.9012C10.7705 60.9273 12.0906 56.8962 13.7157 56.8962C15.336 56.9026 16.6561 60.9273 16.6561 65.9012Z" fill="#2F2F2F"/>
<path d="M43.2625 65.9012C43.2625 70.8687 41.9424 74.8998 40.3221 74.8998C38.697 74.8998 37.377 70.8687 37.377 65.9012C37.377 60.9273 38.697 56.8962 40.3221 56.8962C41.9424 56.9026 43.2625 60.9273 43.2625 65.9012Z" fill="#2F2F2F"/>
<path d="M39.04 74.02C39.04 74.02 39.8216 75.3426 40.6794 75.7856C42.6 76.7918 45.2687 76.4184 46.8795 74.1276L46.0169 68.6475L40.5841 69.7359L39.04 74.02Z" fill="#2F2F2F"/>
<path d="M54.328 7.72656H8.24922C3.4693 7.72656 0.0761719 11.6057 0.0761719 17.3137V58.0288C0.0761719 64.3696 3.95062 69.5144 8.72578 69.5144H35.256C42.2234 69.5144 44.5013 68.3184 48.7618 64.5911C53.1414 60.7626 60.9999 54.4345 60.9999 49.2454V17.2567C60.9999 10.9159 59.1032 7.72656 54.328 7.72656Z" fill="#FCC21B"/>
<mask id="mask0_97_408" style="mask-type:luminance" maskUnits="userSpaceOnUse" x="0" y="7" width="61" height="63">
<path d="M54.328 7.72656H8.24922C3.4693 7.72656 0.0761719 11.6057 0.0761719 17.3137V58.0288C0.0761719 64.3696 3.95062 69.5144 8.72578 69.5144H35.256C42.2234 69.5144 44.5013 68.3184 48.7618 64.5911C53.1414 60.7626 60.9999 54.4345 60.9999 49.2454V17.2567C60.9999 10.9159 59.1032 7.72656 54.328 7.72656Z" fill="white"/>
</mask>
<g mask="url(#mask0_97_408)">
<path d="M-0.181641 51.9349H40.96V70.5585H-0.181641V51.9349ZM40.96 74.4124L62.5816 55.6495V34.7097L40.96 51.9349V74.4124Z" fill="#ED6C30"/>
</g>
<path d="M38.1773 42.544C38.1773 44.6703 36.8763 46.4042 35.2702 46.4042H7.34367C5.74242 46.4042 4.44141 44.6703 4.44141 42.544V18.0289C4.44141 15.9026 5.74242 14.1687 7.34367 14.1687H35.2655C36.8715 14.1687 38.1725 15.9026 38.1725 18.0289V42.544H38.1773Z" fill="#40C0E7"/>
<mask id="mask1_97_408" style="mask-type:luminance" maskUnits="userSpaceOnUse" x="4" y="14" width="35" height="33">
<path d="M38.1773 42.544C38.1773 44.6703 36.8763 46.4042 35.2702 46.4042H7.34367C5.74242 46.4042 4.44141 44.6703 4.44141 42.544V18.0289C4.44141 15.9026 5.74242 14.1687 7.34367 14.1687H35.2655C36.8715 14.1687 38.1725 15.9026 38.1725 18.0289V42.544H38.1773Z" fill="white"/>
</mask>
<g mask="url(#mask1_97_408)">
<path d="M3.15039 12.6816H39.8457V23.9963H3.15039V12.6816Z" fill="#2F2F2F"/>
</g>
<mask id="mask2_97_408" style="mask-type:luminance" maskUnits="userSpaceOnUse" x="4" y="14" width="35" height="33">
<path d="M38.1773 42.544C38.1773 44.6703 36.8763 46.4042 35.2702 46.4042H7.34367C5.74242 46.4042 4.44141 44.6703 4.44141 42.544V18.0289C4.44141 15.9026 5.74242 14.1687 7.34367 14.1687H35.2655C36.8715 14.1687 38.1725 15.9026 38.1725 18.0289V42.544H38.1773Z" fill="white"/>
</mask>
<g mask="url(#mask2_97_408)">
<path d="M9.64551 16.4277H33.345V21.5535H9.64551V16.4277Z" fill="white"/>
</g>
<path d="M51.6693 30.9889C51.6693 32.6342 50.945 34.5073 49.9966 35.2224L46.4653 37.8866C45.1595 38.8611 44.0205 37.9941 44.0205 35.8615V18.5098C44.0205 16.3836 45.1643 14.656 46.4653 14.656H49.9966C50.945 14.656 51.6693 15.9912 51.6693 17.6239V30.9889ZM57.35 16.9468C57.35 15.7001 57.0021 14.6876 56.5541 14.6876H54.9624C54.4096 14.6876 53.933 15.8963 53.933 17.3771V29.4385C53.933 30.9193 54.4096 31.7419 54.9624 31.28L56.5541 29.9891C57.0021 29.622 57.35 28.3311 57.35 27.0844V16.9468Z" fill="#40C0E7"/>
<path d="M7.66266 63.8001C9.47083 63.8001 10.9366 61.8565 10.9366 59.459C10.9366 57.0615 9.47083 55.1179 7.66266 55.1179C5.85448 55.1179 4.38867 57.0615 4.38867 59.459C4.38867 61.8565 5.85448 63.8001 7.66266 63.8001Z" fill="white"/>
<path d="M37.7101 59.459C37.7101 61.8574 36.2423 63.8001 34.4313 63.8001C32.6299 63.8001 31.1621 61.8574 31.1621 59.459C31.1621 57.0543 32.6252 55.1179 34.4313 55.1179C36.2423 55.1179 37.7101 57.0543 37.7101 59.459Z" fill="white"/>
<path d="M48.6189 65.9011C48.6189 70.8686 47.2989 74.8996 45.6786 74.8996C44.0535 74.8996 42.7334 70.8686 42.7334 65.9011C42.7334 60.9271 44.0535 56.8961 45.6786 56.8961C47.2989 56.9025 48.6189 60.9271 48.6189 65.9011ZM59.7896 55.2382C59.7896 59.8893 58.8126 63.6546 57.6069 63.6546C56.4012 63.6546 55.4243 59.8893 55.4243 55.2382C55.4243 50.587 56.4012 46.8154 57.6069 46.8154C58.8174 46.8154 59.7896 50.5933 59.7896 55.2382Z" fill="#2F2F2F"/>
</svg>
