<svg width="707" height="723" viewBox="0 0 707 723" fill="none" xmlns="http://www.w3.org/2000/svg">
<g clip-path="url(#clip0_97_528)">
<ellipse cx="339.5" cy="361.5" rx="339.5" ry="361.5" fill="url(#paint0_linear_97_528)" fill-opacity="0.27"/>
<path d="M-73.6151 -231.109C340.681 39.7566 -198.368 -127.341 -203.324 122.629" stroke="white" stroke-opacity="0.25" stroke-width="6"/>
<path d="M36.1973 -233.342C680.524 103.143 -156.373 -120.266 -162.102 168.632" stroke="white" stroke-opacity="0.25" stroke-width="6"/>
<path d="M132.493 -254.946C775.137 166.374 -257.738 -44.0756 -137.904 294.313" stroke="white" stroke-opacity="0.25" stroke-width="6"/>
<path d="M250.445 -264.259C893.089 157.062 -238.203 20.8921 -118.368 359.281" stroke="white" stroke-opacity="0.25" stroke-width="6"/>
<path d="M250.445 -264.259C893.089 157.062 -238.203 20.8921 -118.368 359.281" stroke="white" stroke-opacity="0.25" stroke-width="6"/>
<path d="M343.911 -283.407C986.556 137.914 -219.047 71.1222 -7.10954 511.444" stroke="white" stroke-opacity="0.25" stroke-width="6"/>
<path d="M786.715 911.076C446.108 675.527 894.665 827.97 906.098 620.337" stroke="white" stroke-opacity="0.25" stroke-width="6"/>
<path d="M694.284 910.169C162.097 614.293 859.548 821.034 872.761 581.065" stroke="white" stroke-opacity="0.25" stroke-width="6"/>
<path d="M612.658 925.703C84.3513 559.359 947.023 760.26 856.06 475.998" stroke="white" stroke-opacity="0.25" stroke-width="6"/>
<path d="M513.174 930.475C-15.1327 564.131 932.478 705.771 841.516 421.51" stroke="white" stroke-opacity="0.25" stroke-width="6"/>
<path d="M513.174 930.475C-15.1327 564.131 932.478 705.771 841.516 421.51" stroke="white" stroke-opacity="0.25" stroke-width="6"/>
<path d="M434 944.037C-94.3059 577.693 917.826 663.542 752.355 292.243" stroke="white" stroke-opacity="0.25" stroke-width="6"/>
</g>
<defs>
<linearGradient id="paint0_linear_97_528" x1="339.5" y1="0" x2="339.5" y2="723" gradientUnits="userSpaceOnUse">
<stop stop-color="#8DDBE5"/>
<stop offset="1" stop-color="#307EBC"/>
</linearGradient>
<clipPath id="clip0_97_528">
<rect width="756" height="723" fill="white"/>
</clipPath>
</defs>
</svg>
