<svg width="44" height="42" viewBox="0 0 44 42" fill="none" xmlns="http://www.w3.org/2000/svg">
<path d="M38.1709 2.625H6.03969C4.28398 2.625 2.75 3.83086 2.75 5.48707V36.2258C2.75 37.8911 4.28398 39.375 6.03969 39.375H38.1614C39.9266 39.375 41.25 37.8812 41.25 36.2258V5.48707C41.2603 3.83086 39.9266 2.625 38.1709 2.625ZM14.6841 33.2579H9.16867V16.8886H14.6841V33.2579ZM12.1172 14.3998H12.0777C10.3125 14.3998 9.16953 13.1455 9.16953 11.5754C9.16953 9.97664 10.3426 8.75191 12.1473 8.75191C13.952 8.75191 15.0563 9.96762 15.0958 11.5754C15.0949 13.1455 13.952 14.3998 12.1172 14.3998ZM34.8416 33.2579H29.3262V24.3075C29.3262 22.1632 28.5235 20.6981 26.528 20.6981C25.0035 20.6981 24.1012 21.6825 23.6998 22.6414C23.5495 22.986 23.5091 23.4552 23.5091 23.9343V33.2579H17.9936V16.8886H23.5091V19.1666C24.3117 18.0756 25.5655 16.5055 28.4831 16.5055C32.1037 16.5055 34.8425 18.7835 34.8425 23.6947L34.8416 33.2579Z" fill="white"/>
</svg>
