<svg width="40" height="40" viewBox="0 0 40 40" fill="none" xmlns="http://www.w3.org/2000/svg">
<path d="M20.0003 3.3335C25.517 3.3335 30.0003 7.76683 30.0003 13.2502C30.0003 20.6835 20.0003 31.6668 20.0003 31.6668C20.0003 31.6668 10.0003 20.6835 10.0003 13.2502C10.0003 7.76683 14.4837 3.3335 20.0003 3.3335ZM20.0003 10.0002C19.1163 10.0002 18.2684 10.3514 17.6433 10.9765C17.0182 11.6016 16.667 12.4494 16.667 13.3335C16.667 14.2176 17.0182 15.0654 17.6433 15.6905C18.2684 16.3156 19.1163 16.6668 20.0003 16.6668C20.8844 16.6668 21.7322 16.3156 22.3573 15.6905C22.9825 15.0654 23.3337 14.2176 23.3337 13.3335C23.3337 12.4494 22.9825 11.6016 22.3573 10.9765C21.7322 10.3514 20.8844 10.0002 20.0003 10.0002ZM33.3337 31.6668C33.3337 35.3502 27.367 38.3335 20.0003 38.3335C12.6337 38.3335 6.66699 35.3502 6.66699 31.6668C6.66699 29.5168 8.70033 27.6002 11.8503 26.3835L12.917 27.9002C11.117 28.6502 10.0003 29.6835 10.0003 30.8335C10.0003 33.1335 14.4837 35.0002 20.0003 35.0002C25.517 35.0002 30.0003 33.1335 30.0003 30.8335C30.0003 29.6835 28.8837 28.6502 27.0837 27.9002L28.1503 26.3835C31.3003 27.6002 33.3337 29.5168 33.3337 31.6668Z" fill="#72BDD6"/>
</svg>
