<svg width="40" height="40" viewBox="0 0 40 40" fill="none" xmlns="http://www.w3.org/2000/svg">
<path d="M0 13.333V34.6663C0 36.0808 0.421427 37.4374 1.17157 38.4376C1.92172 39.4378 2.93913 39.9997 4 39.9997H36C37.0609 39.9997 38.0783 39.4378 38.8284 38.4376C39.5786 37.4374 40 36.0808 40 34.6663V13.333L20 23.9997L0 13.333Z" fill="#72BDD6"/>
<path d="M4 0C2.93913 0 1.92172 0.526784 1.17157 1.46447C0.421427 2.40215 0 3.67392 0 5L0 10L20 20L40 10V5C40 3.67392 39.5786 2.40215 38.8284 1.46447C38.0783 0.526784 37.0609 0 36 0H4Z" fill="#72BDD6"/>
</svg>
