<svg width="61" height="81" viewBox="0 0 61 81" fill="none" xmlns="http://www.w3.org/2000/svg">
<path d="M40.9705 39.2786L32.502 74.4883L37.2247 76.0386L47.3564 75.2223L46.8655 52.4854L40.9705 39.2786Z" fill="#2F2F2F"/>
<path d="M17.0325 28.0272C16.4035 28.6537 14.8832 35.8551 11.1994 45.7143C7.51559 55.5735 2.78809 68.6221 2.78809 68.6221C2.78809 68.6221 3.3409 69.6789 10.3368 73.0265C17.3328 76.3741 23.1135 77.8422 23.1135 77.8422C23.1135 77.8422 38.6971 45.6321 38.821 44.9043C38.9449 44.1703 41.4325 30.742 41.4325 30.742C41.4325 30.742 31.5153 29.8244 27.2167 29.3371C22.9181 28.8499 17.7664 27.2932 17.0325 28.0272Z" fill="#F19F40"/>
<path d="M52.6129 75.1529L57.8456 73.9695C57.8456 73.9695 53.018 60.5602 50.3778 53.7955C47.7377 47.0307 43.1817 32.6722 42.7528 31.6154C42.3239 30.5586 40.5416 30.065 39.7457 31.9445C38.9499 33.8239 32.3066 53.1817 31.058 56.2761C29.6521 59.7566 22.6657 76.8995 22.6038 77.7981C22.5418 78.6967 34.3653 77.2095 34.3653 77.2095L37.4153 65.281L41.0991 44.0881L41.7139 44.2527L44.6591 61.5348L52.6129 75.1529Z" fill="#EC5F32"/>
<path d="M37.8061 76.6462C37.7013 77.4688 34.5845 78.1839 32.8117 78.2345C31.0341 78.2915 27.8555 78.456 27.4837 77.9055C27.112 77.3549 31.4869 72.2038 34.2986 65.458C37.1055 58.7123 38.7592 54.0548 39.1691 52.188C39.5837 50.3212 40.4081 44.7334 40.737 43.7969C41.0658 42.8603 41.7282 43.0312 41.9331 43.9044C42.138 44.7841 44.2873 55.5862 45.0308 58.1617C45.7742 60.7373 48.829 66.1098 49.7392 67.8121C50.6495 69.5144 55.1482 74.0453 55.2292 74.4819C55.3102 74.9186 52.4461 76.2538 50.497 76.5512C49.1006 76.7601 45.8457 76.4373 45.5979 75.8868C45.3501 75.3362 43.6678 60.7373 43.0483 55.8583C42.4288 50.9793 41.3565 44.455 41.3565 44.455C41.3565 44.455 38.9213 60.1361 38.5877 64.3063C38.2588 68.4766 37.9681 75.3299 37.8061 76.6462ZM2.00195 62.3446C2.00195 62.3446 2.34984 61.8637 3.0075 61.8067C3.66516 61.7561 4.24656 62.2876 4.24656 62.2876L4.6707 70.4003C4.6707 70.4003 4.16555 70.9888 3.54602 70.9888C2.92648 70.9888 2.34508 70.5585 2.34508 70.5585L2.00195 62.3446ZM19.7587 70.5016C19.7587 70.5016 20.2972 69.9004 21.1216 69.9004C21.9461 69.9004 22.5656 70.4509 22.5656 70.4509L22.6085 78.6775C22.6085 78.6775 21.9461 79.1711 21.4505 79.1711C20.9548 79.1711 20.1685 78.842 20.1685 78.842L19.7587 70.5016ZM56.7113 66.8882C56.7113 66.8882 57.1545 66.2048 57.9409 66.2554C58.7272 66.306 59.1561 66.6667 59.1561 66.6667L58.7844 75.1084C58.7844 75.1084 58.4937 75.659 57.7931 75.659C57.0926 75.659 56.473 75.2223 56.473 75.2223L56.7113 66.8882Z" fill="#9C2D1B"/>
</svg>
