<svg width="761" height="753" viewBox="0 0 761 753" fill="none" xmlns="http://www.w3.org/2000/svg">
<path d="M683.785 578.627C683.669 577.925 683.471 577.238 683.202 576.578C680.089 568.949 676.797 561.366 673.392 553.85C669.519 545.567 665.843 537.234 662.315 528.852C653.236 507.097 646.279 484.704 640.481 461.992C638.557 454.421 636.756 446.801 635.054 439.18C633.659 430.467 632.31 421.505 631.049 412.295C630.939 411.491 630.93 410.677 631.013 409.87C632.078 399.608 632.505 389.372 632.315 379.203C632.118 368.633 631.23 358.162 629.7 347.887C629.417 341.11 628.771 334.491 627.83 327.878C627.746 327.289 627.712 326.697 627.73 326.103C628.861 290.326 627.286 249.394 612.875 217.117C609.963 210.603 606.534 204.458 602.513 198.755C580.26 171.077 545.72 151.412 511.181 161.244C465.836 172.011 424.291 195.928 377.737 202.467C371.076 203.401 364.34 203.991 357.433 204.114C348.593 203.06 341.344 205.363 331.86 203.216C331.343 203.099 330.82 203.01 330.292 202.962C316.14 201.677 301.116 198.306 285.64 194.011C277.77 191.823 269.752 189.39 261.66 186.858C217.598 173.535 175.658 156.328 128.783 161.244C76.9743 168.619 47.3693 220.239 42.9532 266.008C41.4483 274.218 40.1161 282.453 38.9319 290.737C31.7033 340.415 29.0142 391.248 18.2824 439.672C16.5307 447.759 14.5324 455.822 12.2873 463.835C10.2643 471.48 8.38935 479.37 6.76107 487.457C-7.96742 560.069 -3.72404 646.348 71.8181 681.204C80.2309 685.628 89.1864 689.463 98.3886 692.659C126.02 702.245 155.699 706.252 182.763 703.794C188.906 703.794 195.592 705.834 202.376 708.636C209.161 711.438 216.069 715.027 222.705 718.075C230.008 720.902 237.359 723.483 244.785 725.892C296.792 742.631 351.857 749.195 406.577 751.579C428.534 752.538 450.688 752.833 472.473 750.227C479.751 749.367 487.004 748.162 494.208 746.589C516.93 738.133 541.971 734.987 565.975 730.144C573.969 728.522 581.863 726.728 589.511 724.466C637.299 710.627 669.593 670.462 681.114 624.692C683.433 615.548 684.913 606.158 685.579 596.695C685.37 590.679 684.785 584.664 683.785 578.627Z" fill="#CCEAEE" fill-opacity="0.5"/>
<path d="M657.579 604.905C674.923 584.109 686.888 559.897 679.906 532.219C677.02 520.789 674.207 511.325 681.362 500.854C684.742 495.913 688.936 491.439 691.304 485.933C698.162 469.956 691.378 453.954 683.804 439.623C678.228 429.053 672.332 418.385 669.692 406.66C666.904 394.247 669.52 381.612 668.039 369.076C666.584 356.933 659.503 343.856 647.39 341.791C639.372 340.439 631.23 344.421 625.334 350.001C618.55 356.417 613.936 365.069 612.382 374.238C610.26 386.799 613.64 400.343 608.583 412.043C604.142 422.367 594.051 429.078 587.514 438.222C580.557 447.956 577.867 460.59 580.236 472.291C582.209 482.05 587.464 490.948 589.043 500.756C592.571 522.829 576.955 544.51 579.94 566.682C581.667 579.562 589.759 591.09 600.392 598.661C612.431 607.24 629.824 613.287 644.651 610.509C652.694 608.985 659.799 604.512 664.265 597.629" fill="#5FC1CF" fill-opacity="0.3"/>
<path d="M632.291 595.515C633.401 590.23 633.475 585.191 632.241 581.381C628.072 568.451 615.613 559.701 606.806 550.04C596.32 538.561 588.673 523.813 588.574 508.302C588.5 495.717 585.712 485.122 576.905 475.536C568.245 466.121 557.291 459.189 548.188 450.267C538.566 440.852 529.981 430.872 522.431 419.737C516.066 410.347 504.125 396.311 494.899 411.896C491.247 418.066 490.038 425.612 491.593 432.593C495.663 450.955 512.588 462.975 519.742 479.911C523.369 488.465 523.838 497.634 524.775 506.753C525.638 514.939 527.168 524.107 533.064 530.326C536.494 533.94 540.86 536.644 543.944 540.552C548.262 545.984 549.52 552.941 551 559.529C552.628 566.682 555.268 572.95 558.327 579.562C565.926 596.056 577.102 615.229 594.495 622.677C599.577 624.84 605.301 626.02 610.654 624.619C622.57 621.521 629.947 606.626 632.291 595.515Z" fill="#CCEAEE"/>
<path d="M605.745 455.06C606.485 454.544 607.522 454.765 608.015 455.502L617.446 469.406C622.811 477.314 635.15 473.913 635.705 464.373L639.791 394.124C639.84 393.214 640.654 392.575 641.518 392.575C642.431 392.624 643.122 393.411 643.072 394.296L639.898 449.054C639.444 456.898 647.797 462.178 654.688 458.402L670.876 449.529C671.666 449.111 672.677 449.382 673.097 450.168C673.541 450.955 673.245 451.963 672.455 452.405L638.952 470.767C638.766 470.86 638.624 470.993 638.612 471.201L635.738 520.739C635.291 528.427 643.338 533.713 650.217 530.25L660.564 525.042C661.378 524.624 662.365 524.968 662.784 525.754C663.204 526.566 662.858 527.549 662.069 527.942L639.688 539.212C636.5 540.817 634.409 544 634.202 547.564L631.378 596.252C631.329 597.088 630.663 597.752 629.849 597.801C629.775 597.801 629.725 597.801 629.651 597.801C628.738 597.752 628.048 596.965 628.097 596.08L633.525 502.569C633.653 500.373 633.053 498.196 631.818 496.375L605.326 457.321C604.808 456.584 605.005 455.576 605.745 455.06Z" fill="#E4F3F5"/>
<path d="M692.536 451.989C696.252 456.335 709.178 456.722 710.752 451.225C710.973 450.457 710.858 450.153 710.712 449.367C708.436 437.127 705.672 409.612 724.708 402.833C726.87 402.063 729.318 402.391 731.074 403.868C741.134 412.324 742.472 433.379 718.434 451.018C717.686 451.566 717.302 451.712 717.046 452.604C715.714 457.24 728.121 466.627 732.815 465.518C742.857 463.148 751.734 466.348 756.522 472.345C757.532 473.61 757.836 475.292 757.439 476.86C751.688 499.561 719.355 497.173 706.335 495.241C703.977 494.891 701.822 495.774 700.916 497.979C698.783 503.171 708.553 511.98 714.123 511.295C723.606 510.128 731.6 513.685 735.878 519.496C737.13 521.197 737.346 523.446 736.603 525.422C728.982 545.689 700.195 542.238 686.459 539.324C684.149 538.834 681.887 539.695 680.824 541.804C678.233 546.941 688.021 556.525 693.698 555.588C707.041 553.385 717.99 558.662 723.036 566.905C724.243 568.877 724.302 571.34 723.355 573.449C713.276 595.894 682.091 591.037 665.33 586.528C660.768 585.3 655.864 587.092 653.413 591.131C635.224 621.094 612.347 654.016 583.804 688.114C582.667 689.472 580.642 689.65 579.283 688.513C577.917 687.369 577.743 685.331 578.887 683.964C606.985 650.41 629.508 618.028 647.469 588.541C650.345 583.819 648.733 577.718 644.199 574.555C629.621 564.384 610.51 546.376 619.399 526.041C620.322 523.931 622.177 522.322 624.438 521.883C635.186 519.796 648.222 525.817 655.27 540.619C658.315 547.015 669.868 549.078 673.099 542.774C674.749 539.555 673.423 535.935 670.422 533.915C659.046 526.257 642.871 511.968 649.353 495.703C650.205 493.564 652.079 491.942 654.357 491.606C659.746 490.811 665.77 492.561 670.794 496.988C676.599 502.102 691.775 503.263 694.729 496.113C696.138 492.701 694.469 489.455 691.364 487.459C679.911 480.097 661.361 464.939 668.668 447.621C669.449 445.771 671.074 444.363 673.053 444.019C679.512 442.896 686.966 445.475 692.536 451.989Z" fill="#E4F3F5"/>
<path d="M541.181 523.886C541.65 523.1 542.637 522.854 543.426 523.296L545.41 524.452C553.859 529.375 563.624 520.494 559.522 511.617L545.055 480.304C544.685 479.493 545.03 478.51 545.869 478.141C546.683 477.773 547.67 478.117 548.04 478.952L552.726 489.09C556.806 497.915 569.973 495.419 570.54 485.712C570.589 484.803 571.378 484.139 572.267 484.164C573.179 484.213 573.87 484.999 573.821 485.884L571.378 528.139C571.335 528.614 571.25 529.108 571.451 529.542L588.002 565.347C591.209 572.284 601.359 571.321 603.204 563.904C603.426 563.019 604.314 562.478 605.202 562.699C606.09 562.921 606.633 563.806 606.411 564.691L600.194 589.665C600.025 590.254 599.826 590.905 600.083 591.461L604.684 601.439C605.054 602.25 604.709 603.233 603.87 603.602C603.673 603.7 603.475 603.725 603.278 603.75C602.612 603.799 601.97 603.43 601.699 602.791L575.458 546.018C575.227 545.518 574.681 545.272 574.216 544.977L541.823 526.074C540.984 525.656 540.737 524.648 541.181 523.886Z" fill="#E4F3F5"/>
<path d="M651.51 607.486C651.09 603.75 651.386 600.259 652.496 597.703C656.246 589.026 665.449 583.79 672.208 577.694C680.226 570.442 686.518 560.733 687.628 550.016C688.516 541.314 691.156 534.161 697.915 528.114C704.552 522.166 712.57 518.11 719.478 512.53C726.756 506.655 733.392 500.313 739.362 493.111C744.395 487.04 753.598 478.117 758.951 489.498C761.073 493.996 761.394 499.305 759.864 504.049C755.818 516.487 743.31 523.69 737.216 534.948C734.132 540.626 733.195 546.943 731.937 553.211C730.802 558.84 729.124 565.059 724.634 568.992C722.019 571.278 718.812 572.851 716.419 575.334C713.063 578.825 711.731 583.544 710.251 587.993C708.647 592.836 706.402 596.99 703.836 601.39C697.471 612.304 688.442 624.84 675.909 628.822C672.258 630.002 668.212 630.42 664.585 629.092C656.493 626.143 652.373 615.303 651.51 607.486Z" fill="#5FC1CF" fill-opacity="0.37"/>
<path d="M667.176 612.746L670.903 606.361C671.1 606.023 671.085 605.606 671 605.224L668.36 587.526C668.236 586.641 668.853 585.806 669.741 585.658C670.654 585.511 671.468 586.15 671.616 587.035C672.33 591.83 678.68 593.057 681.128 588.872L694.888 565.346C695.04 565.086 695.054 564.771 695.054 564.469L696.189 535.046C696.213 534.136 696.953 533.448 697.891 533.473C698.804 533.497 699.494 534.259 699.47 535.169C699.232 541.401 707.486 543.805 710.632 538.421L714.544 531.728C715.012 530.941 715.999 530.695 716.789 531.138C717.578 531.605 717.85 532.588 717.381 533.375L706.072 552.727C702.641 558.599 708.81 565.399 714.988 562.552C715.802 562.159 716.789 562.527 717.183 563.339C717.553 564.15 717.208 565.133 716.394 565.502L692.71 576.44C692.382 576.58 692.062 576.767 691.883 577.075L670.037 614.442C669.741 614.934 669.248 615.229 668.705 615.253C668.385 615.278 668.064 615.204 667.792 615.032C666.978 614.541 666.707 613.533 667.176 612.746Z" fill="#5FC1CF"/>
<path d="M539.602 401.601C539.602 407.124 535.125 411.601 529.602 411.601H300.476C294.953 411.601 290.476 407.124 290.476 401.601V281.248C290.476 212.815 346.355 157.139 415.039 157.139C483.722 157.139 539.602 212.815 539.602 281.248V401.601ZM331.997 360.231C331.997 365.754 336.474 370.231 341.997 370.231H488.081C493.604 370.231 498.081 365.754 498.081 360.231V281.248C498.081 235.626 460.828 198.509 415.039 198.509C369.25 198.509 331.997 235.626 331.997 281.248V360.231Z" fill="#1A171E"/>
<path d="M456.774 407.864H370.689C365.166 407.864 360.689 412.342 360.689 417.864V515.042C360.689 520.564 365.166 525.042 370.689 525.042H456.774C462.296 525.042 466.774 520.564 466.774 515.042V417.864C466.774 412.342 462.296 407.864 456.774 407.864Z" fill="#1A171E"/>
<path d="M575.523 315.809H254.629C243.823 315.809 235.164 324.535 235.164 335.203V586.002C235.164 596.67 243.823 605.396 254.629 605.396H575.523C586.23 605.396 594.988 596.67 594.988 586.002V335.203C594.988 324.535 586.254 315.809 575.523 315.809ZM395.647 461.527C398.355 459.185 400.36 455.974 400.36 452.394V436.747C400.36 428.684 406.897 422.171 415.088 422.171C423.18 422.171 429.718 428.684 429.718 436.747V452.374C429.718 455.965 431.735 459.183 434.455 461.527C440.779 466.975 444.767 474.992 444.767 483.918C444.767 501.444 429.397 515.381 411.412 513.243C398.583 511.694 387.95 501.763 385.804 489.031C383.945 478.063 388.171 467.992 395.647 461.527Z" fill="#5FC1CF"/>
<path d="M594.988 335.203V586.002C594.988 596.67 586.23 605.396 575.523 605.396H254.629C243.823 605.396 235.164 596.67 235.164 586.002V583.679C235.164 578.102 239.703 573.606 245.279 573.651C321.21 574.267 427.719 570.177 486.56 546.402C572.235 511.755 574.499 370.718 571.698 319.865C571.576 317.652 573.331 315.809 575.547 315.809C586.254 315.809 594.988 324.535 594.988 335.203Z" fill="#309FAF"/>
<path d="M144.228 574.961V507.176C144.228 504.648 142.179 502.599 139.651 502.599C137.124 502.599 135.075 504.648 135.075 507.176V574.961C135.075 577.488 137.124 579.537 139.651 579.537C142.179 579.537 144.228 577.488 144.228 574.961Z" fill="#0E0D3A"/>
<path d="M138.322 579.829L137.941 599.234C137.925 600.044 138.569 600.714 139.379 600.73C140.19 600.745 140.86 600.101 140.876 599.291L141.258 579.886C141.274 579.076 140.629 578.406 139.819 578.39C139.008 578.375 138.338 579.019 138.322 579.829Z" fill="#0E0D3A"/>
<path d="M139.269 608.346C141.776 608.346 143.808 606.321 143.808 603.823C143.808 601.325 141.776 599.3 139.269 599.3C136.762 599.3 134.729 601.325 134.729 603.823C134.729 606.321 136.762 608.346 139.269 608.346Z" fill="#0E0D3A"/>
<path d="M162.261 603.823C162.261 606.306 160.238 608.346 157.722 608.346C155.23 608.346 153.183 606.331 153.183 603.823C153.183 601.341 155.206 599.3 157.722 599.3C160.214 599.3 162.261 601.316 162.261 603.823Z" fill="#0E0D3A"/>
<path d="M159.375 599.799C159.375 600.61 158.718 601.267 157.907 601.267C157.097 601.267 156.439 600.61 156.439 599.799V596.89C156.439 595.727 155.976 594.611 155.152 593.79L141.197 579.885C140.623 579.314 140.623 578.385 141.197 577.813C141.767 577.244 142.691 577.244 143.261 577.813L157.837 592.336C158.822 593.317 159.375 594.649 159.375 596.039V599.799Z" fill="#0E0D3A"/>
<path d="M117.04 603.823C117.04 606.306 119.063 608.346 121.579 608.346C124.071 608.346 126.119 606.331 126.119 603.823C126.119 601.341 124.096 599.3 121.579 599.3C119.063 599.3 117.04 601.316 117.04 603.823Z" fill="#0E0D3A"/>
<path d="M122.838 599.811C122.838 600.615 122.186 601.267 121.382 601.267C120.578 601.267 119.927 600.615 119.927 599.811V596.038C119.927 594.649 120.479 593.317 121.462 592.336L136.016 577.814C136.587 577.245 137.51 577.245 138.081 577.813C138.655 578.385 138.655 579.313 138.081 579.885L124.125 593.79C123.301 594.611 122.838 595.727 122.838 596.89V599.811Z" fill="#0E0D3A"/>
<path d="M178.619 389.281V494.394C178.619 499.916 174.142 504.394 168.619 504.394H94.4667C84.327 504.394 76.1362 496.233 76.1362 486.155V389.281C76.1362 371.288 90.766 356.712 108.825 356.712H145.955C163.964 356.736 178.619 371.313 178.619 389.281Z" fill="#5FC1CF"/>
<path d="M133.841 483.254V494.394C133.841 499.916 129.364 504.394 123.841 504.394H94.4667C84.327 504.394 76.1362 496.233 76.1362 486.155C76.1362 484.539 77.4458 483.23 79.0613 483.23H133.817C133.83 483.23 133.841 483.241 133.841 483.254Z" fill="#0E0D3A"/>
<path d="M194.252 483.254H117.616C112.093 483.254 107.616 487.731 107.616 493.254V494.394C107.616 499.916 112.093 504.394 117.616 504.394H194.252C199.775 504.394 204.252 499.916 204.252 494.394V493.254C204.252 487.731 199.775 483.254 194.252 483.254Z" fill="#5FC1CF"/>
<path d="M166.629 485.442C198.627 490.678 225.493 489.153 226.678 482.025C227.862 474.897 202.87 464.868 170.897 459.607C138.923 454.347 112.032 455.896 110.848 463.024C109.664 470.152 134.631 480.181 166.629 485.442Z" fill="#E6D5B9"/>
<path d="M220.929 480.157C243.503 469.563 251.719 567.911 246.735 589.271C241.727 610.632 228.503 574.105 222.04 539.421C215.551 504.738 212.048 484.336 220.929 480.157Z" fill="#E6D5B9"/>
<path d="M246.026 590.458C246.776 590.581 246.69 590.924 247.192 591.495C248.457 592.933 251.347 595.969 256.085 599.62C262.722 604.733 264.473 603.651 264.597 605.544C264.688 606.948 249.374 606.269 241.468 605.824C238.899 605.68 236.941 603.501 237.035 600.93L237.146 597.909C237.256 594.907 243.062 589.972 246.026 590.458Z" fill="#1A171E"/>
<path d="M195.075 474.847C226.407 484.729 253.569 487.162 255.765 480.28C257.961 473.397 234.351 459.779 203.019 449.898C171.687 440.016 144.524 437.583 142.328 444.465C140.133 451.348 163.767 464.941 195.075 474.847Z" fill="#E6D5B9"/>
<path d="M248.018 476.617C274.391 484.188 206.966 565.379 187.278 579.414C167.591 593.45 185.847 559.75 205.757 526.394C225.666 493.037 237.656 473.643 248.018 476.617Z" fill="#E6D5B9"/>
<path d="M185.872 579.922C186.383 580.552 186.067 580.762 186.066 581.573C186.066 583.662 186.242 588.281 187.5 594.778C189.252 603.799 191.497 604.192 190.214 605.839C189.279 607.062 177.087 595.4 170.877 589.321C168.871 587.357 168.833 584.158 170.765 582.121L173.093 579.665C175.347 577.287 183.81 577.376 185.872 579.922Z" fill="#1A171E"/>
<path d="M128.611 445.596C130.536 459.263 152.123 469.538 173.438 476.74C194.877 484.016 216.045 488.146 216.76 489.571C218.166 492.251 184.565 555.424 180.988 562.085C180.81 562.416 180.871 562.833 181.151 563.084L187.493 568.756C191.592 572.423 197.845 572.11 201.442 567.95C217.736 549.108 258.715 499.581 256.974 479.985C255.127 458.712 181.35 441.27 171.851 439.11C171.176 438.957 170.552 438.752 169.915 438.482C163.408 435.728 125.156 420.533 128.611 445.596Z" fill="black"/>
<path d="M216.76 489.571C217.123 490.262 215.156 494.979 211.976 501.712C207.06 512.122 218.928 520.427 225.478 510.96C235.169 496.953 240.81 484.273 235.954 477.723C226.392 464.821 198.273 456.915 180.104 453.009C172.753 451.429 166.883 458.512 169.419 465.591L171.785 472.193C172.814 475.066 175.097 477.321 178.003 478.252C197.798 484.592 216.096 488.248 216.76 489.571Z" fill="#272525"/>
<path d="M116.769 488.195C137.172 494.807 205.017 493.357 207.41 496.184C209.373 498.502 225.521 556.367 231.269 577.113C232.471 581.451 236.409 584.429 240.911 584.429H251.571C251.373 584.429 246.341 501.198 233.512 480.157C221.416 460.241 153.579 447.306 146.356 445.979C145.914 445.898 145.508 445.857 145.059 445.839L106.406 444.289C105.403 444.249 104.518 444.925 104.36 445.916C103.003 453.265 98.957 482.418 116.769 488.195Z" fill="black"/>
<path d="M116.769 488.195C137.172 494.807 205.017 493.357 207.41 496.184C209.743 498.94 232.127 580.202 233.246 584.271C233.278 584.387 233.373 584.429 233.494 584.429C233.64 584.429 233.76 584.324 233.76 584.177C233.844 561.82 219.026 497.75 211.456 489.424C203.019 480.181 158.167 481.263 134.878 479.764C133.232 479.657 131.663 479.388 130.169 478.979C119.917 476.173 104.019 480.845 113.039 486.469C114.161 487.169 115.401 487.751 116.769 488.195Z" fill="#272525"/>
<path d="M159.252 363.717C163.274 357.547 166.431 350.345 169.984 343.979C172.328 339.775 174.77 335.228 174.301 330.459C173.956 326.772 171.933 323.454 171.07 319.84C170.379 316.94 170.453 313.916 170.502 310.942C170.601 306.812 170.7 302.683 170.798 298.529C170.848 296.021 171.538 293.268 170.107 291.326C168.282 288.868 164.68 286.804 162.336 284.862C159.353 282.377 156.369 279.902 153.391 277.424C149.905 274.524 144.905 274.318 141.199 276.932L120.711 291.39C117.904 293.37 116.31 296.652 116.49 300.082L118.827 344.79C119.018 348.455 121.202 351.72 124.514 353.302C130.411 356.118 136.301 358.942 142.205 361.751C145.116 363.127 148.027 364.528 150.938 365.905C153.751 367.257 155.552 368.928 157.673 366.028C158.191 365.29 158.734 364.528 159.252 363.717Z" fill="#1A171E"/>
<path d="M146.374 354.057C148.027 360.817 150.198 369.887 152.837 378.662C155.107 386.405 157.698 393.829 160.436 399.04C163.125 404.202 165.962 407.201 168.824 406.316C169.86 405.996 170.699 405.333 171.316 404.399C172.5 402.53 172.919 399.605 172.771 395.992C172.673 392.993 172.155 389.503 171.365 385.717C170.526 381.637 169.392 377.261 168.109 372.886C164.581 360.817 160.041 348.551 157.796 341.791C156.661 338.276 151.332 340.144 147.706 339.825C138.923 338.989 143.536 342.406 146.374 354.057Z" fill="#E6D5B9"/>
<path d="M161.325 405.628C161.991 408.11 192.953 418.778 214.688 423.99C226.653 426.939 235.806 428.168 235.658 425.538C235.288 419.295 188.611 401.768 172.772 395.992C172.205 395.795 171.686 395.574 171.218 395.427C169.244 394.714 167.073 394.591 165.099 395.107C164.063 395.427 163.076 395.869 162.213 396.606C161.226 397.368 160.708 398.204 160.461 399.04C159.721 401.179 160.757 403.563 161.325 405.628Z" fill="#E6D5B9"/>
<path d="M158.637 395.182C159.721 397.67 159.918 400.578 160.63 403.197C160.858 404.033 161.137 404.853 161.35 405.628C162.016 408.11 192.978 418.778 214.713 423.99C200.947 418.582 181.012 410.273 171.342 404.399C168.455 402.653 166.432 401.105 165.815 399.9C164.976 398.303 164.828 396.705 165.149 395.107C165.496 393.284 166.446 391.506 167.591 389.924C169.662 387.064 171.001 383.591 170.144 380.166C170.012 379.637 169.876 379.106 169.737 378.572C168.841 375.133 165.819 372.698 162.276 372.414L161.624 372.362C158.86 372.14 156.199 373.464 154.709 375.803C153.551 377.62 153.225 379.851 153.859 381.911C155.341 386.724 156.951 391.31 158.637 395.182Z" fill="#DDCAAF"/>
<path d="M226.529 422.171C228.256 417.328 236.324 421.261 239.013 422.687C243.404 425.022 246.76 431.093 245.847 432.839C244.934 434.584 235.263 428.66 234.72 428.881C234.177 429.102 238.618 432.445 237.582 433.994C236.571 435.543 230.131 431.88 228.133 429.446C226.184 427.013 225.444 425.219 226.529 422.171Z" fill="#E6D5B9"/>
<path d="M149.433 380.569C149.681 382.103 151.096 383.144 152.64 382.964L166.604 381.514C169.673 381.197 171.944 378.54 171.635 375.469C170.473 363.916 166.608 338.235 155.305 339.8C144.013 341.378 147.939 371.298 149.433 380.569Z" fill="#FE5B3A"/>
<path d="M149.853 378.023C149.518 381.524 154.818 382.738 158.316 382.375L159.476 382.254C163.737 381.812 167.32 378.711 167.864 374.461C168.026 373.193 168.16 371.865 168.257 370.477C168.512 366.95 168.364 363.754 167.975 360.909C166.929 353.264 158.502 353.864 155.837 361.106C152.888 369.118 149.951 377.234 149.853 378.023Z" fill="#F74528"/>
<path d="M105.278 434.627C105.058 439.983 108.842 444.801 114.18 445.289C127.02 446.463 149.994 447.467 164.944 441.778C168.462 440.439 169.666 436.317 168.356 432.789C167.27 429.913 165.913 426.079 164.729 421.851C162.756 414.895 161.103 406.685 161.251 399.163C161.621 381.071 166.95 378.22 167.468 366.519C167.986 354.819 162.188 341.816 158.142 338.055C150.075 330.484 130.141 330.361 121.95 334.294C114.697 337.809 111.81 342.332 110.873 346.732C109.837 351.378 109.072 357.105 108.43 363.348C107.715 370.403 107.246 378.244 106.876 386.184C106.457 393.657 106.259 401.301 106.037 408.454C105.939 412.068 105.84 415.509 105.717 418.827C105.597 424.729 105.464 430.106 105.278 434.627Z" fill="#FE5B3A"/>
<path d="M107.403 377.137C107.094 382.27 110.798 386.844 115.931 387.152C121.569 387.491 126.646 387.152 127.723 385.103C129.046 382.611 129.169 375.601 128.952 369.123C128.734 362.613 122.19 358.439 116.054 360.625L114.437 361.201C110.799 362.498 108.221 365.772 107.919 369.623C107.726 372.074 107.556 374.587 107.403 377.137Z" fill="#F74528"/>
<path d="M105.806 418.301C105.795 418.666 105.838 419.008 105.938 419.359C106.905 422.751 108.147 425.69 109.836 426.718C113.108 428.8 142.601 431.098 160.492 432.303C164.198 432.553 167.03 429.256 165.904 425.717C165.247 423.653 163.327 421.777 161.167 421.615C149.856 420.767 122.582 418.586 115.588 418.026C114.518 417.941 113.545 417.427 112.86 416.601L112.38 416.021C110.204 413.395 105.91 414.892 105.806 418.301Z" fill="#F74528"/>
<path d="M168.528 306.911C168.158 319.717 165.987 323.06 161.892 326.256C158.038 329.239 149.203 326.189 148.141 325.819C148.129 325.815 148.121 325.808 148.11 325.801C148.1 325.794 148.091 325.791 148.085 325.79C148.079 325.789 148.064 325.777 148.06 325.773C148.046 325.758 148.027 325.779 148.027 325.799C148.027 326.221 148.027 328.822 148.027 331.32V336.162C148.027 336.875 150.765 342.528 143.167 342.528C139.025 342.528 134.906 340.77 131.999 339.157C129.327 337.675 127.945 334.753 127.945 331.698C127.945 328.556 127.945 324.54 127.945 321.721C127.945 319.482 127.185 317.316 125.973 315.434C122.476 310.009 115.919 297.742 119.927 287.074C125.256 272.891 151.974 279.282 160.288 282.281C168.676 285.304 168.849 294.178 168.528 306.911Z" fill="#E6D5B9"/>
<path d="M148.052 327.075C148.052 326.259 147.54 325.532 146.772 325.257C144.798 324.55 143.271 327.055 144.804 328.486C146.038 329.638 148.052 328.762 148.052 327.075Z" fill="#E6D5B9"/>
<path d="M110.133 421.753C110.552 421.998 111.021 422.171 111.539 422.171C113.858 422.269 115.881 420.302 117.657 416.959C118.743 414.649 119.779 411.699 120.716 408.307C122.32 402.014 123.553 394.222 124.491 386.282C124.639 384.93 124.812 383.554 124.91 382.153C126.317 369.1 126.884 356.22 127.081 349.706C127.18 346.044 125.428 342.43 122.123 340.882C114.154 337.121 109.861 353.516 108.504 365.438C108.085 369.199 107.567 373.746 107.098 378.539C105.272 396.557 104.138 418.68 110.133 421.753Z" fill="#E6D5B9"/>
<path d="M110.057 421.625C110.108 421.709 110.133 421.804 110.184 421.887C110.21 421.929 110.235 421.96 110.265 421.999C112.639 425.188 170.166 429.259 190.462 426.374C195.174 425.71 197.863 424.678 197.394 423.129C195.272 416.468 140.256 410.298 120.692 408.282C119.755 408.184 118.941 408.086 118.201 408.037C115.314 407.717 112.354 408.504 110.183 410.298C109.615 410.765 109.097 411.281 108.678 411.847C105.834 415.625 108.354 418.782 110.057 421.625Z" fill="#E6D5B9"/>
<path d="M109.975 421.666C110.072 421.722 110.138 421.828 110.205 421.918C110.221 421.94 110.234 421.954 110.249 421.977C112.342 425.132 168.798 429.172 189.746 426.471C190.226 426.409 190.804 426.052 190.461 425.71C187.772 422.613 134.656 419.565 117.633 416.935C115.092 416.566 113.39 416.173 112.724 415.804C111.317 415.042 110.552 412.977 110.182 410.298C109.146 403.12 110.898 391.567 111.367 388.175C111.934 383.947 122.542 385.865 124.467 386.258C124.663 386.307 124.853 386.203 124.96 386.031L125.466 385.219C126.059 384.27 125.886 383.032 125.056 382.282L124.886 382.128L123.937 381.276C122.146 379.67 119.837 378.762 117.432 378.72L116.283 378.7C111.079 378.609 106.653 382.524 106.264 387.714C105.105 403.189 105.129 418.851 109.975 421.666Z" fill="#DDCAAF"/>
<path d="M186.44 422.023C186.983 416.222 196.925 418.287 200.305 419.123C205.782 420.474 211.16 426.202 210.667 428.365C210.173 430.553 197.863 426.718 197.345 427.111C196.826 427.505 202.624 429.938 201.933 431.929C201.243 433.92 193.15 431.683 190.289 429.545C187.427 427.431 186.119 425.661 186.44 422.023Z" fill="#E6D5B9"/>
<path d="M114.074 382.316C108.893 381.779 105.002 377.363 105.477 372.176C106.612 359.779 109.921 339.31 119.384 339.997C129.626 340.737 129.022 361.811 127.739 374.387C127.206 379.606 122.471 383.185 117.253 382.645L114.074 382.316Z" fill="#FE5B3A"/>
<path d="M170.724 300.299C172.451 290.417 173.044 284.1 170.206 278.028C163.817 264.361 129.475 255.709 117.509 281.519C116.671 283.313 115.906 285.132 115.166 286.951C109.738 300.52 106.408 315.022 104.656 329.501C103.916 335.646 103.447 341.84 103.57 348.035C103.62 350.444 103.743 352.852 104.089 355.237C104.434 357.67 104.385 361.235 105.89 363.152C106.876 364.405 108.283 365.266 109.639 366.077C110.75 366.741 111.959 367.453 113.266 367.478C114.598 367.503 115.807 366.839 116.942 366.175C121.876 363.226 126.44 359.416 129.475 354.524C132.509 349.632 133.916 343.585 132.485 338.03C132.041 336.334 131.35 334.712 130.856 333.016C129.574 328.689 129.574 323.994 130.807 319.668C131.424 317.505 132.879 315.588 133.299 313.376C133.669 311.532 133.817 309.369 133.718 307.476C133.669 306.493 133.521 305.485 133.595 304.502C133.669 303.642 133.891 302.781 134.138 301.945C134.557 300.421 135.001 298.897 135.421 297.373C135.889 295.751 136.383 294.03 137.641 292.875C138.48 292.113 139.565 291.695 140.601 291.228C145.737 288.944 153.929 287.842 157.761 291.954C161.374 295.833 165.494 299.105 170.774 300.274" fill="#1A171E"/>
<path d="M298.568 377.335C302.383 377.335 303.721 379.506 302.041 382.931L280.319 427.213C278.882 430.141 279.816 432.016 276.554 431.993C266.971 431.925 239.993 395.002 244.214 386.398L246.13 382.492C247.679 379.336 250.868 377.335 254.384 377.335C264.987 377.335 287.598 377.335 298.568 377.335Z" fill="#DFE5E4"/>
<path d="M182.073 428.217C181.799 430.137 183.29 431.854 185.229 431.853L218.374 431.833C220.603 431.832 222.637 430.563 223.618 428.562C224.464 426.831 223.212 424.81 221.286 424.797L186.342 424.556C184.205 424.541 182.384 426.103 182.073 428.217Z" fill="#C7D8D5"/>
<path d="M248.013 378.657C248.311 378.047 247.867 377.335 247.188 377.335C246.836 377.335 246.515 377.536 246.361 377.853L220.799 430.607C220.56 431.101 220.874 431.684 221.417 431.755C221.76 431.8 222.093 431.622 222.245 431.311L248.013 378.657Z" fill="#C7D8D5"/>
<path d="M181.814 430.036C181.677 430.996 182.423 431.855 183.393 431.854L218.374 431.833C220.603 431.832 222.637 430.563 223.618 428.562C223.575 428.669 191.924 428.327 183.903 428.238C182.933 428.227 181.951 429.076 181.814 430.036Z" fill="#C7D8D5"/>
<path d="M269.161 408.209C266.941 410.962 263.462 411.847 261.39 410.2C259.342 408.553 259.465 404.964 261.71 402.211C263.931 399.458 267.409 398.573 269.482 400.22C271.554 401.867 271.406 405.456 269.161 408.209Z" fill="#C7D8D5"/>
<path d="M88.5943 603.947V437.041C88.5943 435.277 87.1639 433.846 85.3995 433.846C83.635 433.846 82.2046 435.277 82.2046 437.041V603.947C82.2046 605.711 83.635 607.142 85.3995 607.142C87.1639 607.142 88.5943 605.711 88.5943 603.947Z" fill="#1E1C23"/>
<path d="M309.966 603.947V437.041C309.966 435.277 308.536 433.846 306.772 433.846C305.007 433.846 303.577 435.277 303.577 437.041V603.947C303.577 605.711 305.007 607.142 306.772 607.142C308.536 607.142 309.966 605.711 309.966 603.947Z" fill="#1E1C23"/>
<path d="M54.3367 443.723L337.703 443.723C341.219 443.723 344.07 440.872 344.07 437.356C344.07 433.84 341.219 430.99 337.703 430.99L54.3367 430.99C50.8206 430.99 47.9703 433.84 47.9703 437.356C47.9703 440.872 50.8206 443.723 54.3367 443.723Z" fill="#1A171E"/>
<path d="M579.057 458.302C579.169 458.321 579.281 458.329 579.395 458.329C579.511 458.329 579.623 458.321 579.738 458.301C580.633 458.146 584.958 457.31 589.182 454.969C589.215 454.951 589.256 454.961 589.277 454.992C589.285 455.004 589.289 455.018 589.289 455.033V460.941C589.289 461.607 589.229 462.272 588.995 462.895C588.373 464.548 586.587 467.939 582.02 469.712C580.622 470.255 579.059 470.254 577.663 469.707C573.142 467.934 571.338 464.542 570.7 462.872C570.455 462.232 570.392 461.548 570.392 460.864V455.574C570.392 455.544 570.402 455.514 570.421 455.49C570.461 455.44 570.532 455.425 570.589 455.455C574.46 457.438 578.23 458.16 579.057 458.302Z" fill="#DDCBB1"/>
<path d="M579.737 458.301C579.623 458.321 579.511 458.329 579.395 458.329C579.281 458.329 579.169 458.321 579.057 458.302C578.223 458.159 574.393 457.426 570.465 455.404C567.64 454.004 564.771 451.969 562.904 449.07C561.038 446.173 558.551 443.357 556.806 440.385C556.356 439.619 556.064 438.732 556.082 437.73C556.134 434.932 559.716 431.367 559.571 428.571C559.335 424.055 559.904 417.841 563.632 412.658C569.59 404.329 577.035 405.658 578.673 406.075C578.895 406.132 579.119 406.168 579.348 406.168C579.576 406.168 579.798 406.132 580.019 406.076C581.659 405.66 589.149 404.323 595.112 412.658C598.864 417.838 599.432 424.048 599.19 428.564C599.04 431.349 602.61 434.941 602.661 437.73C602.679 438.733 602.389 439.621 601.943 440.388C600.22 443.35 597.751 446.154 595.901 449.038C594.227 451.647 591.749 453.553 589.24 454.937C584.997 457.302 580.637 458.146 579.737 458.301Z" fill="#E6D5B9"/>
<path d="M621.14 559.197C621.14 559.221 621.143 559.245 621.149 559.269C621.186 559.402 621.117 559.542 620.988 559.593C607.04 565.069 592.512 573.041 584.964 577.377C581.772 579.211 577.86 579.212 574.667 577.379C567.13 573.053 552.635 565.102 538.694 559.593C538.568 559.543 538.505 559.402 538.551 559.275C538.561 559.248 538.566 559.219 538.566 559.189V541.216V535.333C538.566 532.88 540.555 530.892 543.007 530.892H579.569H580.137H616.65C619.13 530.892 621.14 532.902 621.14 535.382V541.216V559.197Z" fill="white"/>
<path d="M538.541 541.216V559.191C538.541 559.219 538.536 559.247 538.527 559.273C538.481 559.4 538.339 559.463 538.214 559.414C535.265 558.262 532.319 557.239 529.51 556.347C528.388 555.99 527.339 555.441 526.426 554.699C517.913 547.785 507.164 538.383 505.902 534.259C504.819 530.826 509.482 520.787 515.359 509.804C515.383 509.759 515.435 509.736 515.484 509.749C515.494 509.751 515.503 509.755 515.512 509.76L530.227 518.011C532.834 519.48 533.732 522.764 532.412 525.448C531.067 528.183 530.226 530.363 530.499 531.113C531.383 533.708 538.008 540.732 538.422 541.17C538.435 541.184 538.453 541.191 538.472 541.191H538.517C538.53 541.191 538.541 541.202 538.541 541.216Z" fill="#E6D5B9"/>
<path d="M653.755 534.259C652.512 538.37 641.761 547.783 633.243 554.72C632.37 555.431 631.364 555.953 630.29 556.288C627.446 557.173 624.48 558.21 621.446 559.412C621.322 559.461 621.183 559.391 621.148 559.263C621.142 559.243 621.14 559.224 621.14 559.204V541.302C621.14 541.254 621.178 541.216 621.226 541.216C621.25 541.216 621.271 541.208 621.287 541.19C621.733 540.715 628.278 533.702 629.207 531.138C629.481 530.399 628.628 528.19 627.267 525.424C625.959 522.767 626.849 519.516 629.429 518.061L644.169 509.784C644.178 509.779 644.187 509.776 644.197 509.773C644.246 509.761 644.298 509.784 644.322 509.829C650.199 520.787 654.862 530.826 653.755 534.259Z" fill="#E6D5B9"/>
<path d="M635.893 532.219C634.43 534.729 629.922 540.148 625.458 545.314C623.964 547.043 621.14 545.979 621.14 543.694V541.302C621.14 541.254 621.178 541.216 621.226 541.216C621.25 541.216 621.271 541.208 621.287 541.19C621.733 540.715 628.278 533.702 629.207 531.138C629.533 530.259 628.265 527.302 626.444 523.801C625.543 522.068 626.146 519.919 627.85 518.965C629.402 518.096 631.372 518.504 632.361 519.983C634.93 523.821 637.731 529.108 635.893 532.219Z" fill="#DDCBB1"/>
<path d="M644.238 509.646C644.26 509.688 644.237 509.739 644.192 509.75C644.185 509.751 644.179 509.754 644.174 509.757L630.564 517.422L629.444 518.052C629.434 518.058 629.425 518.065 629.417 518.073C629.409 518.081 629.399 518.088 629.389 518.094L628.667 518.5C626.519 519.706 623.781 518.939 622.546 516.807C620.074 512.588 617.723 508.878 617.253 508.147C617.245 508.135 617.236 508.125 617.228 508.113C617.22 508.099 617.218 508.088 617.217 508.083C617.217 508.082 617.217 508.08 617.216 508.078C617.211 508.063 617.189 508.058 617.188 508.075C617.121 509.171 616.27 523.352 616.65 530.179C616.65 530.559 616.341 530.867 615.961 530.867H543.671C543.291 530.867 542.982 530.559 542.982 530.179C543.432 523.36 542.541 509.201 542.469 508.078C542.466 508.033 542.451 508.005 542.443 508.049C542.441 508.066 542.436 508.11 542.427 508.124C541.987 508.776 539.919 512.065 537.624 515.981C536.116 518.554 532.82 519.485 530.228 518.011L515.507 509.757C515.502 509.754 515.496 509.751 515.49 509.75C515.444 509.739 515.422 509.688 515.443 509.647C521.48 498.312 528.905 485.966 532.769 478.83C539.035 467.35 560.079 463.319 567.653 462.237C569.207 462.016 570.66 463.075 571.437 464.438C572.425 466.173 574.278 468.388 577.638 469.707C579.034 470.254 580.597 470.255 581.996 469.712C585.388 468.396 587.253 466.188 588.246 464.461C589.021 463.112 590.464 462.064 592.003 462.287C599.553 463.344 620.646 467.326 626.913 478.83C630.391 485.196 636.633 495.717 642.258 505.967C642.934 507.193 643.586 508.42 644.238 509.646Z" fill="#FE5B3A"/>
<path d="M630.002 516.425C630.317 516.974 630.119 517.672 629.567 517.983L629.444 518.052C629.434 518.058 629.425 518.065 629.417 518.073C629.409 518.081 629.4 518.088 629.39 518.094L628.847 518.399C626.595 519.664 623.745 518.858 622.438 516.631C620.027 512.523 617.781 508.944 617.27 508.173C617.25 508.142 617.217 508.118 617.217 508.081C617.217 508.08 617.217 508.081 617.217 508.08C617.217 504.731 621.309 503.323 623.254 506.05C625.471 509.159 627.941 512.832 630.002 516.425Z" fill="#F74528"/>
<path d="M538.447 504.463C539.678 502.608 542.464 503.488 542.464 505.714V507.926C542.464 507.971 542.449 508.008 542.442 508.052C542.44 508.068 542.436 508.11 542.428 508.123C541.927 508.897 539.07 513.426 536.285 518.296C535.534 519.609 533.864 520.085 532.546 519.342C531.257 518.616 530.782 516.992 531.508 515.703C533.823 511.596 536.384 507.573 538.447 504.463Z" fill="#F74528"/>
<path d="M538.455 541.216C538.502 541.216 538.541 541.254 538.541 541.302V543.324C538.541 545.078 536.531 546.056 535.19 544.926C529.92 540.486 525.288 535.567 525.145 531.826C525.061 529.114 526.665 524.933 528.932 520.455C529.61 519.115 531.274 518.64 532.583 519.377C533.872 520.104 534.329 521.734 533.634 523.042C531.605 526.862 530.124 530.176 530.474 531.138C531.355 533.726 537.946 540.717 538.394 541.191C538.41 541.208 538.431 541.216 538.455 541.216Z" fill="#DDCBB1"/>
<path d="M556.995 432.593C556.517 430.846 556.978 428.472 556.729 426.678C556.667 426.236 556.642 425.756 556.674 425.243C556.742 424.039 557.094 423.05 557.511 422.281C558.224 420.968 558.517 419.241 558.895 417.795C559.346 416.11 560.549 414.217 560.846 412.499C560.956 411.859 561.172 411.186 561.559 410.544C563.174 407.839 567.204 404.914 569.739 403.044C569.962 402.879 570.196 402.732 570.441 402.604C571.515 402.035 572.555 401.966 573.434 402.1C574.737 402.299 576.468 401.57 577.768 401.351C579.008 401.139 581.073 401.105 582.307 401.351C583.603 401.59 585.333 402.292 586.636 402.09C587.516 401.954 588.558 402.025 589.635 402.604C589.876 402.732 590.108 402.879 590.33 403.044C592.858 404.924 596.901 407.839 598.516 410.544C598.903 411.186 599.119 411.861 599.229 412.503C599.523 414.209 600.723 416.126 601.18 417.795C601.594 419.265 601.858 420.937 602.587 422.279C603.005 423.048 603.358 424.038 603.426 425.243C603.452 425.754 603.425 426.233 603.362 426.674C603.107 428.467 603.595 430.856 603.08 432.593C602.914 433.174 602.567 433.645 602.13 433.938C601.492 434.365 600.707 434.639 600.046 435.026C599.567 435.265 598.993 435.24 598.573 434.909C598.327 434.715 598.067 434.444 597.85 434.068C596.653 432.028 596.566 429.401 596.055 427.092C595.91 426.437 595.851 425.714 595.95 424.948C596.095 424.012 595.689 422.968 594.964 422.358C594.257 421.763 593.492 420.848 593.113 419.516C592.883 418.702 591.636 417.975 590.931 417.508C590.893 417.482 590.855 417.455 590.819 417.426C590.25 416.973 589.475 416.608 588.782 416.829C588.192 417.017 587.457 417.143 586.625 417.058C584.929 416.893 581.881 417.243 580.178 417.301C580.148 417.302 580.118 417.303 580.087 417.304C580.062 417.304 580.062 417.304 580.038 417.304C580.013 417.304 580.013 417.304 579.988 417.304C579.956 417.303 579.925 417.302 579.893 417.301C578.165 417.241 575.172 416.889 573.45 417.058C572.611 417.143 571.879 417.018 571.294 416.832C570.63 416.621 569.802 416.992 569.256 417.426C569.219 417.456 569.18 417.484 569.141 417.51C568.414 417.989 567.174 418.671 566.962 419.516C566.595 420.852 565.826 421.768 565.114 422.363C564.388 422.97 563.98 424.012 564.125 424.948C564.231 425.716 564.175 426.441 564.03 427.097C563.52 429.407 563.422 432.028 562.225 434.068C562.008 434.444 561.748 434.715 561.502 434.909C561.082 435.24 560.508 435.265 560.029 435.026C559.354 434.67 558.577 434.362 557.943 433.937C557.506 433.643 557.161 433.172 556.995 432.593Z" fill="#1A171E"/>
<path d="M610.017 590.97C613.351 592.588 615.427 595.988 615.367 599.694C615.3 604.26 611.373 607.792 606.834 607.289C603.553 606.926 599.459 606.444 594.816 605.839C579.298 603.823 557.637 600.431 539.479 595.466C522.925 590.943 509.282 585.117 505.878 577.841C498.476 561.962 514.167 549.278 532.251 555.522C539.504 558.054 554.282 564.617 569.43 571.647C585.406 579.077 601.777 586.972 610.017 590.97Z" fill="#1E1C23"/>
<path d="M612.941 592.391C614.489 593.145 615.448 594.721 615.42 596.443C615.388 598.378 614.106 600.07 612.251 600.624L596.831 605.23C595.486 605.631 594.076 605.747 592.685 605.562C583.635 604.356 572.766 602.709 561.811 600.586C553.238 598.924 551.068 587.279 557.781 581.693C560.112 579.754 562.381 577.817 564.495 575.983C567.508 573.37 571.772 572.734 575.383 574.428C591.546 582.009 607.027 589.513 612.941 592.391Z" fill="#151319"/>
<path d="M622.866 594.765C621.764 595.4 621.559 596.783 621.559 598.055V599.604C621.559 604.869 625.644 609.272 630.909 609.295C635.058 609.313 639.13 609.094 639.643 608.199C640.728 606.306 642.061 599.472 637.743 596.179C634.143 593.436 626.151 592.873 622.866 594.765Z" fill="#1E1C23"/>
<path d="M614.957 598.353C615 596.036 617.313 594.451 619.49 595.246C620.821 595.732 621.706 596.999 621.706 598.416V605.043C621.706 607.075 619.952 608.664 617.93 608.463C616.147 608.286 614.8 606.77 614.833 604.979L614.957 598.353Z" fill="#E6D5B9"/>
<path d="M544.307 599.027C544.391 603.957 548.627 607.764 553.527 607.216C578.263 604.451 645.631 595.376 653.828 577.841C661.229 561.962 645.538 549.278 627.43 555.546C612.316 560.778 564.463 583.801 549.049 591.272C546.081 592.711 544.251 595.729 544.307 599.027Z" fill="#1E1C23"/>
<path d="M544.526 598.353C544.483 596.036 542.171 594.451 539.994 595.246C538.662 595.732 537.777 596.999 537.777 598.416V605.043C537.777 607.075 539.531 608.664 541.553 608.463C543.336 608.286 544.684 606.77 544.65 604.979L544.526 598.353Z" fill="#E6D5B9"/>
<path d="M536.625 594.778C537.704 595.41 537.9 596.772 537.9 598.023V599.604C537.9 604.869 533.815 609.272 528.55 609.295C524.401 609.313 520.33 609.094 519.816 608.199C518.731 606.306 517.399 599.472 521.716 596.179C525.346 593.43 533.369 592.871 536.625 594.778Z" fill="#1E1C23"/>
<path d="M164.285 156.844H138.75C134.605 156.844 131.226 153.477 131.226 149.347V123.906C131.226 119.777 134.605 116.409 138.75 116.409H164.285C168.429 116.409 171.809 119.777 171.809 123.906V149.347C171.809 153.477 168.454 156.844 164.285 156.844Z" fill="#5FC1CF" fill-opacity="0.2"/>
<path d="M178.939 172.625H151.061C146.595 172.625 142.969 169.012 142.969 164.563V136.737C142.969 132.288 146.595 128.675 151.061 128.675H178.964C183.429 128.675 187.056 132.288 187.056 136.737V164.538C187.056 168.987 183.429 172.625 178.939 172.625ZM151.061 135.017C150.099 135.017 149.334 135.779 149.334 136.737V164.538C149.334 165.497 150.099 166.259 151.061 166.259H178.964C179.926 166.259 180.69 165.497 180.69 164.538V136.737C180.69 135.779 179.926 135.017 178.964 135.017H151.061Z" fill="#CECEEA" fill-opacity="0.2"/>
<path d="M603.302 227.293H622.693C625.851 227.293 628.417 224.737 628.417 221.591V202.27C628.417 199.124 625.851 196.567 622.693 196.567H603.302C600.144 196.567 597.578 199.124 597.578 202.27V221.591C597.578 224.737 600.144 227.293 603.302 227.293Z" fill="#5FC1CF" fill-opacity="0.2"/>
<path d="M613.343 239.264H592.15C588.746 239.264 586.007 236.511 586.007 233.144V212.029C586.007 208.636 588.77 205.908 592.15 205.908H613.343C616.747 205.908 619.486 208.661 619.486 212.029V233.144C619.51 236.511 616.747 239.264 613.343 239.264ZM592.175 210.726C591.46 210.726 590.867 211.316 590.867 212.029V233.144C590.867 233.856 591.46 234.446 592.175 234.446H613.367C614.083 234.446 614.675 233.856 614.675 233.144V212.029C614.675 211.316 614.083 210.726 613.367 210.726H592.175Z" fill="#CECEEA" fill-opacity="0.2"/>
<path d="M587.956 42.6171C587.142 42.6171 586.353 42.2976 585.761 41.7076L578.384 34.3579C577.175 33.1535 577.175 31.2116 578.384 30.0071L585.761 22.6574C586.97 21.453 588.919 21.453 590.128 22.6574L597.504 30.0071C598.096 30.5971 598.417 31.3591 598.417 32.1948C598.417 33.0306 598.096 33.7926 597.504 34.3825L590.128 41.7322C589.56 42.2976 588.795 42.6171 587.956 42.6171ZM587.956 24.2552C587.808 24.2552 587.66 24.3044 587.537 24.4273L580.16 31.7769C579.938 31.9982 579.938 32.3669 580.16 32.5881L587.537 39.9378C587.833 40.2328 588.055 40.2328 588.351 39.9378L595.728 32.5881C595.876 32.4406 595.9 32.2686 595.9 32.1702C595.9 32.0719 595.876 31.8998 595.728 31.7524L588.351 24.4027C588.253 24.3044 588.104 24.2552 587.956 24.2552Z" fill="#CECEEA" fill-opacity="0.2"/>
<path d="M624.247 343.758C623.458 343.758 622.669 343.463 622.052 342.848L614.675 335.498C613.466 334.294 613.466 332.352 614.675 331.148L622.052 323.798C623.261 322.593 625.21 322.593 626.418 323.798L633.795 331.148C635.004 332.352 635.004 334.294 633.795 335.498L626.418 342.848C625.851 343.463 625.037 343.758 624.247 343.758ZM623.853 341.078C624.149 341.373 624.371 341.373 624.667 341.078L632.043 333.729C632.191 333.581 632.216 333.409 632.216 333.311C632.216 333.212 632.191 333.04 632.043 332.893L624.667 325.543C624.371 325.248 624.149 325.248 623.853 325.543L616.476 332.893C616.328 333.04 616.303 333.212 616.303 333.311C616.303 333.409 616.328 333.581 616.476 333.729L623.853 341.078Z" fill="#CECEEA" fill-opacity="0.2"/>
<path d="M253.815 20.8876C253.025 20.8876 252.236 20.5926 251.619 19.9781L244.242 12.6284C243.65 12.0385 243.33 11.2765 243.33 10.4407C243.33 9.60498 243.65 8.84297 244.242 8.25303L251.619 0.903347C252.828 -0.301116 254.777 -0.301116 255.986 0.903347L263.362 8.25303C263.954 8.84297 264.275 9.60498 264.275 10.4407C264.275 11.2765 263.954 12.0385 263.362 12.6284L255.986 19.9781C255.394 20.5926 254.604 20.8876 253.815 20.8876ZM253.815 2.55027C253.716 2.55027 253.543 2.57485 253.395 2.72233L246.019 10.072C245.871 10.2195 245.846 10.3916 245.846 10.4899C245.846 10.5882 245.871 10.7603 246.019 10.9078L253.395 18.2575C253.691 18.5524 253.913 18.5524 254.209 18.2575L261.586 10.9078C261.734 10.7603 261.759 10.5882 261.759 10.4899C261.759 10.3916 261.734 10.2195 261.586 10.072L254.209 2.72233C254.061 2.57485 253.889 2.55027 253.815 2.55027Z" fill="#CECEEA" fill-opacity="0.2"/>
<path d="M76.4065 328.567C75.617 328.567 74.8276 328.272 74.2108 327.657L66.8342 320.307C66.2421 319.717 65.9214 318.955 65.9214 318.12C65.9214 317.284 66.2421 316.522 66.8342 315.932L74.2108 308.582C74.8029 307.992 75.5677 307.673 76.4065 307.673C77.2453 307.673 78.0101 307.992 78.6022 308.582L85.9788 315.932C87.1877 317.136 87.1877 319.078 85.9788 320.283L78.6022 327.632C77.9854 328.272 77.196 328.567 76.4065 328.567ZM76.4065 310.205C76.3078 310.205 76.1351 310.229 75.9871 310.377L68.6105 317.726C68.4625 317.874 68.4378 318.046 68.4378 318.144C68.4378 318.243 68.4625 318.415 68.6105 318.562L75.9871 325.912C76.2091 326.133 76.5792 326.133 76.8012 325.912L84.1778 318.562C84.3258 318.415 84.3505 318.243 84.3505 318.144C84.3505 318.046 84.3258 317.874 84.1778 317.726L76.8012 310.377C76.6532 310.229 76.4805 310.205 76.4065 310.205Z" fill="#CECEEA"/>
<path d="M710.003 381.317C709.115 381.317 708.301 380.973 707.684 380.358L699.098 371.804C697.816 370.526 697.816 368.437 699.098 367.159L706.179 360.104C707.462 358.826 709.559 358.826 710.842 360.104L719.427 368.658C720.71 369.936 720.71 372.026 719.427 373.304L712.347 380.358C711.705 380.973 710.866 381.317 710.003 381.317ZM709.559 378.466C709.806 378.712 710.2 378.712 710.447 378.466L717.528 371.411C717.774 371.165 717.774 370.772 717.528 370.526L708.942 361.972C708.695 361.726 708.301 361.726 708.054 361.972L700.973 369.027C700.727 369.273 700.727 369.666 700.973 369.912L709.559 378.466Z" fill="#CECEEA" fill-opacity="0.2"/>
<path d="M222.112 237.494C224.865 237.494 227.096 235.271 227.096 232.529C227.096 229.787 224.865 227.564 222.112 227.564C219.36 227.564 217.129 229.787 217.129 232.529C217.129 235.271 219.36 237.494 222.112 237.494Z" fill="#DEDDF2"/>
<path d="M675.661 134.599C675.661 137.524 673.293 139.884 670.357 139.884C667.421 139.884 665.053 137.524 665.053 134.599C665.053 131.674 667.421 129.314 670.357 129.314C673.268 129.314 675.661 131.674 675.661 134.599Z" fill="#5FC1CF" fill-opacity="0.2"/>
<path d="M410.4 22.7558C410.4 25.6809 408.032 28.0407 405.096 28.0407C402.16 28.0407 399.792 25.6809 399.792 22.7558C399.792 19.8307 402.16 17.4709 405.096 17.4709C408.032 17.4709 410.4 19.8307 410.4 22.7558Z" fill="#DEDDF2"/>
<path d="M289.513 160.409C289.513 163.776 286.775 166.529 283.37 166.529C279.99 166.529 277.227 163.801 277.227 160.409C277.227 157.041 279.966 154.288 283.37 154.288C286.775 154.313 289.513 157.041 289.513 160.409Z" fill="#DEDDF2"/>
<path d="M106.259 227.121C108.711 227.121 110.699 225.14 110.699 222.697C110.699 220.253 108.711 218.272 106.259 218.272C103.806 218.272 101.818 220.253 101.818 222.697C101.818 225.14 103.806 227.121 106.259 227.121Z" fill="#DEDDF2"/>
<path d="M218.757 300.52C218.757 302.953 216.759 304.944 214.317 304.944C211.874 304.944 209.876 302.953 209.876 300.52C209.876 298.086 211.874 296.095 214.317 296.095C216.759 296.095 218.757 298.086 218.757 300.52Z" fill="#DEDDF2"/>
<path d="M79.7618 257.602C79.7618 258.683 78.8983 259.543 77.8128 259.543C76.7273 259.543 75.8638 258.683 75.8638 257.602C75.8638 256.52 76.7273 255.66 77.8128 255.66C78.8736 255.66 79.7618 256.545 79.7618 257.602Z" fill="#DEDDF2"/>
<path d="M530.4 38.5367C525.342 36.7669 519.915 35.8328 514.29 35.882C492.168 36.0786 473.596 50.9399 467.84 71.1839C467.84 71.1873 467.835 71.2178 467.835 71.2213C467.835 71.223 467.833 71.2293 467.832 71.2293H309.62L244.637 71.2539C239.136 71.2539 234.695 75.6784 234.67 81.16V97.7397C234.67 97.7465 234.676 97.7521 234.683 97.7521C234.69 97.7521 234.695 97.7576 234.695 97.7644V112.304C234.695 116.901 238.445 120.661 243.083 120.637H244.563C249.202 120.637 252.952 116.901 252.952 112.304V103.032C252.952 100.116 255.315 97.7521 258.231 97.7521C261.147 97.7521 263.511 100.116 263.511 103.032V112.304C263.511 116.901 267.261 120.637 271.899 120.637H273.823C278.461 120.637 282.211 116.901 282.211 112.304V103.061C282.211 100.127 284.586 97.7466 287.52 97.7398C290.46 97.733 292.848 100.112 292.854 103.052L292.869 111.812C292.869 116.188 296.002 120.17 300.369 120.588C305.402 121.104 309.62 117.196 309.62 112.279V107.727C309.62 102.205 314.098 97.7275 319.62 97.7275H460.278C464.749 97.7275 468.58 100.748 470.457 104.806C472.061 108.273 474.065 111.521 476.42 114.492C485.351 125.799 499.216 133.05 514.759 133.05C542.464 133.05 564.742 110.067 563.483 82.1678C562.546 61.9623 548.78 44.854 530.4 38.5367ZM545.424 94.8515C543.451 96.1543 541.058 96.9163 538.517 96.9163C531.658 96.9163 526.058 91.3365 526.058 84.4538C526.058 77.5712 531.658 71.9913 538.517 71.9913C541.103 71.9913 543.492 72.7752 545.488 74.1229C545.495 74.1274 545.503 74.1298 545.511 74.1298C545.519 74.1298 545.527 74.1322 545.533 74.1367C548.833 76.3745 551.025 80.1566 551.025 84.4538C551.025 88.8046 548.804 92.6147 545.424 94.8515Z" fill="#5FC1CF"/>
<path d="M563.484 82.1678C564.742 110.067 542.464 133.05 514.759 133.05C514.488 133.05 514.218 133.048 513.948 133.044C503.346 132.871 508.142 123.136 518.341 120.236C521.613 119.306 524.86 117.976 528.056 116.188C536.528 111.433 541.579 105.286 544.246 98.462C545.137 96.1819 546.685 94.2086 548.232 92.3116C549.98 90.1692 551.025 87.4387 551.025 84.4538C551.025 80.1545 548.832 76.3709 545.529 74.1336C545.525 74.1311 545.521 74.1298 545.517 74.1298C545.506 74.1298 545.497 74.1224 545.495 74.1122C544.818 70.632 543.856 67.1834 542.716 63.8436C539.675 54.9289 547.244 47.2602 553.092 54.6442C559.175 62.3253 563.005 71.8421 563.484 82.1678Z" fill="#309FAF"/>
<path d="M148.094 325.769C148.098 325.774 148.082 325.789 148.076 325.789C148.075 325.789 148.075 325.788 148.074 325.787C148.073 325.786 148.071 325.784 148.07 325.783C148.055 325.769 148.027 325.779 148.027 325.799C148.027 326.085 148.027 327.375 148.027 328.955C148.027 329.898 146.949 330.393 146.277 329.732C145.69 329.154 145.113 328.545 144.559 327.931C143.019 326.223 144.744 324.126 146.818 325.122L148.049 325.714C148.051 325.715 148.052 325.716 148.053 325.717C148.057 325.721 148.071 325.737 148.094 325.769Z" fill="#DDCAAF"/>
<path d="M318.107 418.852C317.318 417.058 314.209 410.2 313.42 405.873C312.655 401.523 310.287 398.008 310.213 395.844C310.139 393.681 313.716 392.403 314.653 387.954C315.591 383.505 317.466 376.229 318.625 376.45C319.785 376.671 320.574 384.66 321.685 386.627C322.795 388.593 325.755 391.027 323.461 393.878C321.142 396.705 322.375 400.097 324.497 403.071C326.619 406.021 320.624 409.708 321.216 413.739C321.423 415.153 321.419 416.735 321.325 418.195C321.211 419.976 319.018 420.387 318.107 418.852Z" fill="#CECEEA"/>
<path d="M319.144 410.249C319.144 410.249 319.144 410.249 319.144 410.249C318.971 410.249 318.823 410.126 318.798 409.929C318.502 407.275 317.688 405.259 317.047 403.637C316.529 402.358 316.085 401.252 316.06 400.22C316.011 398.942 316.726 397.958 317.417 397C318.058 396.115 318.724 395.205 318.897 394.001C319.218 391.469 316.948 385.865 316.923 385.815C316.849 385.643 316.923 385.422 317.121 385.348C317.294 385.275 317.516 385.373 317.59 385.545C317.688 385.791 319.958 391.371 319.613 394.099C319.44 395.476 318.675 396.508 318.009 397.418C317.318 398.352 316.751 399.163 316.775 400.195C316.8 401.105 317.22 402.113 317.713 403.391C318.379 405.062 319.218 407.127 319.514 409.88C319.536 410.058 319.417 410.216 319.248 410.262C319.214 410.272 319.179 410.249 319.144 410.249Z" fill="#DEDDF2"/>
<path d="M312.137 417.525C311.274 417.131 311.003 412.437 309.399 411.748C307.795 411.06 306.66 408.848 306.142 406.586C305.624 404.3 300.961 403.342 300.073 400.884C299.185 398.425 301.825 396.68 301.652 394.394C301.48 392.108 299.531 388.863 300.937 387.389C302.343 385.889 304.81 391.076 306.118 392.133C307.45 393.19 309.991 394.32 309.276 396.262C308.56 398.18 309.547 401.351 314.111 403.096C318.749 404.792 321.734 421.802 312.137 417.525Z" fill="#DEDDF2"/>
<path d="M312.853 409.438C312.705 409.438 312.557 409.339 312.507 409.192C311.619 406.439 310.188 405.357 308.56 404.128C307.721 403.489 306.833 402.825 305.994 401.867C303.428 399.04 304.637 394.124 304.687 393.927C304.736 393.73 304.933 393.632 305.106 393.681C305.455 393.768 305.312 394.275 305.252 394.629C305.029 395.94 304.655 399.372 306.512 401.4C307.326 402.285 308.165 402.948 308.979 403.563C310.632 404.841 312.211 406.021 313.173 408.971C313.213 409.109 313.157 409.279 313.044 409.366C312.989 409.408 312.921 409.438 312.853 409.438Z" fill="#CECEEA"/>
<path d="M319.394 413.133C319.402 415.018 321.064 414.338 322.795 413.592C324.448 412.879 326.076 412.412 327.359 410.323C328.642 408.209 327.359 404.939 328.765 402.727C330.171 400.515 333.329 402.604 334.982 400.392C336.635 398.18 332.984 394.32 334.267 392.674C335.55 391.027 337.326 386.602 335.55 386.012C333.798 385.422 328.864 388.593 327.581 391.395C326.298 394.198 323.708 395.844 323.116 398.057C322.523 400.269 320.648 401.449 320.18 403.661C319.711 405.873 320.426 409.266 319.588 411.724C319.448 412.159 319.391 412.639 319.394 413.133Z" fill="#DEDDF2"/>
<path d="M324.892 430.676H310.164C309.103 430.676 308.239 429.84 308.19 428.783L307.966 423.096C307.752 417.654 312.106 413.125 317.553 413.125C322.999 413.125 327.354 417.654 327.139 423.096L326.915 428.783C326.816 429.84 325.953 430.676 324.892 430.676Z" fill="#FE5B3A"/>
<path d="M323.979 409.856H323.954C323.757 409.831 323.609 409.683 323.634 409.487C324.078 403.415 326.199 400.122 328.42 397.491C329.731 395.916 330.665 393.2 331.011 392.065C331.116 391.72 331.231 391.198 331.578 391.297C331.775 391.346 331.874 391.543 331.824 391.715C331.775 391.887 330.739 395.795 328.938 397.934C326.791 400.49 324.744 403.686 324.324 409.536C324.3 409.708 324.152 409.856 323.979 409.856Z" fill="#CECEEA"/>
<path d="M208.192 405.062C212.805 405.062 216.471 408.937 216.217 413.543L215.699 422.933L215.685 423.185C215.458 427.495 211.897 430.872 207.582 430.872C203.256 430.872 199.691 427.48 199.477 423.16L199.465 422.933L198.972 413.543C198.731 408.933 202.403 405.062 207.02 405.062H208.192Z" fill="#DFE5E4"/>
<path d="M214.162 402.58H201.052C200.285 402.58 199.663 403.201 199.663 403.968C199.663 404.735 200.285 405.357 201.052 405.357H214.162C214.929 405.357 215.551 404.735 215.551 403.968C215.551 403.201 214.929 402.58 214.162 402.58Z" fill="#131016"/>
<path d="M215.952 404.964H199.286C198.295 404.964 197.492 405.767 197.492 406.758C197.492 407.749 198.295 408.553 199.286 408.553H215.952C216.943 408.553 217.746 407.749 217.746 406.758C217.746 405.767 216.943 404.964 215.952 404.964Z" fill="#131016"/>
<path d="M211.256 413.543C213.951 413.543 216.092 415.806 215.944 418.496C215.806 420.985 213.748 422.933 211.256 422.933H203.92C201.423 422.933 199.363 420.978 199.232 418.484C199.091 415.798 201.231 413.543 203.92 413.543H211.256Z" fill="#FE5B3A"/>
<path d="M207.606 420.745C208.983 420.745 210.098 419.633 210.098 418.262C210.098 416.891 208.983 415.78 207.606 415.78C206.23 415.78 205.115 416.891 205.115 418.262C205.115 419.633 206.23 420.745 207.606 420.745Z" fill="#DFE5E4"/>
</svg>
 