<svg width="895" height="924" viewBox="0 0 895 924" fill="none" xmlns="http://www.w3.org/2000/svg">
<path d="M0 88C0 74.1929 11.1929 63 25 63H870C883.807 63 895 74.1929 895 88V899C895 912.807 883.807 924 870 924H25C11.1929 924 0 912.807 0 899V88Z" fill="url(#paint0_linear_0_1)"/>
<g clip-path="url(#clip0_0_1)">
<path opacity="0.3" d="M602.457 214.87C634.785 247.078 654.836 286.935 662.582 328.626L724.291 266.689C710.024 228.07 687.341 191.861 656.246 160.882C541.557 46.6157 356.003 46.9379 241.799 161.565C127.595 276.192 127.959 461.746 242.649 576.012C273.743 606.992 310.035 629.541 348.707 643.665L410.416 581.728C368.696 574.136 328.765 554.232 296.437 522.024C211.576 437.476 211.311 300.186 295.809 215.375C380.306 130.565 517.597 130.322 602.457 214.87Z" fill="url(#paint1_linear_0_1)"/>
</g>
<path d="M802.092 233C803.145 233 803.999 232.146 803.999 231.093C803.999 230.039 803.145 229.185 802.092 229.185C801.039 229.185 800.186 230.039 800.186 231.093C800.186 232.146 801.039 233 802.092 233Z" fill="white"/>
<path d="M802.092 216.968C803.145 216.968 803.999 216.114 803.999 215.06C803.999 214.007 803.145 213.153 802.092 213.153C801.039 213.153 800.186 214.007 800.186 215.06C800.186 216.114 801.039 216.968 802.092 216.968Z" fill="white"/>
<path d="M802.092 200.911C803.145 200.911 803.999 200.057 803.999 199.004C803.999 197.951 803.145 197.097 802.092 197.097C801.039 197.097 800.186 197.951 800.186 199.004C800.186 200.057 801.039 200.911 802.092 200.911Z" fill="white"/>
<path d="M802.092 184.879C803.145 184.879 803.999 184.025 803.999 182.972C803.999 181.918 803.145 181.064 802.092 181.064C801.039 181.064 800.186 181.918 800.186 182.972C800.186 184.025 801.039 184.879 802.092 184.879Z" fill="white"/>
<path d="M802.092 168.847C803.145 168.847 803.999 167.993 803.999 166.94C803.999 165.886 803.145 165.032 802.092 165.032C801.039 165.032 800.186 165.886 800.186 166.94C800.186 167.993 801.039 168.847 802.092 168.847Z" fill="white"/>
<path d="M802.092 152.815C803.145 152.815 803.999 151.961 803.999 150.907C803.999 149.854 803.145 149 802.092 149C801.039 149 800.186 149.854 800.186 150.907C800.186 151.961 801.039 152.815 802.092 152.815Z" fill="white"/>
<path d="M787.082 233C788.135 233 788.989 232.146 788.989 231.093C788.989 230.039 788.135 229.185 787.082 229.185C786.029 229.185 785.176 230.039 785.176 231.093C785.176 232.146 786.029 233 787.082 233Z" fill="white"/>
<path d="M787.082 216.968C788.135 216.968 788.989 216.114 788.989 215.06C788.989 214.007 788.135 213.153 787.082 213.153C786.029 213.153 785.176 214.007 785.176 215.06C785.176 216.114 786.029 216.968 787.082 216.968Z" fill="white"/>
<path d="M787.082 200.911C788.135 200.911 788.989 200.057 788.989 199.004C788.989 197.951 788.135 197.097 787.082 197.097C786.029 197.097 785.176 197.951 785.176 199.004C785.176 200.057 786.029 200.911 787.082 200.911Z" fill="white"/>
<path d="M787.082 184.879C788.135 184.879 788.989 184.025 788.989 182.972C788.989 181.918 788.135 181.064 787.082 181.064C786.029 181.064 785.176 181.918 785.176 182.972C785.176 184.025 786.029 184.879 787.082 184.879Z" fill="white"/>
<path d="M787.082 168.847C788.135 168.847 788.989 167.993 788.989 166.94C788.989 165.886 788.135 165.032 787.082 165.032C786.029 165.032 785.176 165.886 785.176 166.94C785.176 167.993 786.029 168.847 787.082 168.847Z" fill="white"/>
<path d="M787.082 152.815C788.135 152.815 788.989 151.961 788.989 150.907C788.989 149.854 788.135 149 787.082 149C786.029 149 785.176 149.854 785.176 150.907C785.176 151.961 786.029 152.815 787.082 152.815Z" fill="white"/>
<path d="M772.048 233C773.101 233 773.954 232.146 773.954 231.093C773.954 230.039 773.101 229.185 772.048 229.185C770.995 229.185 770.142 230.039 770.142 231.093C770.142 232.146 770.995 233 772.048 233Z" fill="white"/>
<path d="M772.048 216.968C773.101 216.968 773.954 216.114 773.954 215.06C773.954 214.007 773.101 213.153 772.048 213.153C770.995 213.153 770.142 214.007 770.142 215.06C770.142 216.114 770.995 216.968 772.048 216.968Z" fill="white"/>
<path d="M772.048 200.911C773.101 200.911 773.954 200.057 773.954 199.004C773.954 197.951 773.101 197.097 772.048 197.097C770.995 197.097 770.142 197.951 770.142 199.004C770.142 200.057 770.995 200.911 772.048 200.911Z" fill="white"/>
<path d="M772.048 184.879C773.101 184.879 773.954 184.025 773.954 182.972C773.954 181.918 773.101 181.064 772.048 181.064C770.995 181.064 770.142 181.918 770.142 182.972C770.142 184.025 770.995 184.879 772.048 184.879Z" fill="white"/>
<path d="M772.048 168.847C773.101 168.847 773.954 167.993 773.954 166.94C773.954 165.886 773.101 165.032 772.048 165.032C770.995 165.032 770.142 165.886 770.142 166.94C770.142 167.993 770.995 168.847 772.048 168.847Z" fill="white"/>
<path d="M772.048 152.815C773.101 152.815 773.954 151.961 773.954 150.907C773.954 149.854 773.101 149 772.048 149C770.995 149 770.142 149.854 770.142 150.907C770.142 151.961 770.995 152.815 772.048 152.815Z" fill="white"/>
<path d="M757.038 233C758.091 233 758.944 232.146 758.944 231.093C758.944 230.039 758.091 229.185 757.038 229.185C755.985 229.185 755.131 230.039 755.131 231.093C755.131 232.146 755.985 233 757.038 233Z" fill="white"/>
<path d="M757.038 216.968C758.091 216.968 758.944 216.114 758.944 215.06C758.944 214.007 758.091 213.153 757.038 213.153C755.985 213.153 755.131 214.007 755.131 215.06C755.131 216.114 755.985 216.968 757.038 216.968Z" fill="white"/>
<path d="M757.038 200.911C758.091 200.911 758.944 200.057 758.944 199.004C758.944 197.951 758.091 197.097 757.038 197.097C755.985 197.097 755.131 197.951 755.131 199.004C755.131 200.057 755.985 200.911 757.038 200.911Z" fill="white"/>
<path d="M757.038 184.879C758.091 184.879 758.944 184.025 758.944 182.972C758.944 181.918 758.091 181.064 757.038 181.064C755.985 181.064 755.131 181.918 755.131 182.972C755.131 184.025 755.985 184.879 757.038 184.879Z" fill="white"/>
<path d="M757.038 168.847C758.091 168.847 758.944 167.993 758.944 166.94C758.944 165.886 758.091 165.032 757.038 165.032C755.985 165.032 755.131 165.886 755.131 166.94C755.131 167.993 755.985 168.847 757.038 168.847Z" fill="white"/>
<path d="M757.038 152.815C758.091 152.815 758.944 151.961 758.944 150.907C758.944 149.854 758.091 149 757.038 149C755.985 149 755.131 149.854 755.131 150.907C755.131 151.961 755.985 152.815 757.038 152.815Z" fill="white"/>
<path d="M742.004 233C743.057 233 743.91 232.146 743.91 231.093C743.91 230.039 743.057 229.185 742.004 229.185C740.951 229.185 740.097 230.039 740.097 231.093C740.097 232.146 740.951 233 742.004 233Z" fill="white"/>
<path d="M742.004 216.968C743.057 216.968 743.91 216.114 743.91 215.06C743.91 214.007 743.057 213.153 742.004 213.153C740.951 213.153 740.097 214.007 740.097 215.06C740.097 216.114 740.951 216.968 742.004 216.968Z" fill="white"/>
<path d="M742.004 200.911C743.057 200.911 743.91 200.057 743.91 199.004C743.91 197.951 743.057 197.097 742.004 197.097C740.951 197.097 740.097 197.951 740.097 199.004C740.097 200.057 740.951 200.911 742.004 200.911Z" fill="white"/>
<path d="M742.004 184.879C743.057 184.879 743.91 184.025 743.91 182.972C743.91 181.918 743.057 181.064 742.004 181.064C740.951 181.064 740.097 181.918 740.097 182.972C740.097 184.025 740.951 184.879 742.004 184.879Z" fill="white"/>
<path d="M742.004 168.847C743.057 168.847 743.91 167.993 743.91 166.94C743.91 165.886 743.057 165.032 742.004 165.032C740.951 165.032 740.097 165.886 740.097 166.94C740.097 167.993 740.951 168.847 742.004 168.847Z" fill="white"/>
<path d="M742.004 152.815C743.057 152.815 743.91 151.961 743.91 150.907C743.91 149.854 743.057 149 742.004 149C740.951 149 740.097 149.854 740.097 150.907C740.097 151.961 740.951 152.815 742.004 152.815Z" fill="white"/>
<path d="M726.994 233C728.047 233 728.9 232.146 728.9 231.093C728.9 230.039 728.047 229.185 726.994 229.185C725.941 229.185 725.087 230.039 725.087 231.093C725.087 232.146 725.941 233 726.994 233Z" fill="white"/>
<path d="M726.994 216.968C728.047 216.968 728.9 216.114 728.9 215.06C728.9 214.007 728.047 213.153 726.994 213.153C725.941 213.153 725.087 214.007 725.087 215.06C725.087 216.114 725.941 216.968 726.994 216.968Z" fill="white"/>
<path d="M726.994 200.911C728.047 200.911 728.9 200.057 728.9 199.004C728.9 197.951 728.047 197.097 726.994 197.097C725.941 197.097 725.087 197.951 725.087 199.004C725.087 200.057 725.941 200.911 726.994 200.911Z" fill="white"/>
<path d="M726.994 184.879C728.047 184.879 728.9 184.025 728.9 182.972C728.9 181.918 728.047 181.064 726.994 181.064C725.941 181.064 725.087 181.918 725.087 182.972C725.087 184.025 725.941 184.879 726.994 184.879Z" fill="white"/>
<path d="M726.994 168.847C728.047 168.847 728.9 167.993 728.9 166.94C728.9 165.886 728.047 165.032 726.994 165.032C725.941 165.032 725.087 165.886 725.087 166.94C725.087 167.993 725.941 168.847 726.994 168.847Z" fill="white"/>
<path d="M726.994 152.815C728.047 152.815 728.9 151.961 728.9 150.907C728.9 149.854 728.047 149 726.994 149C725.941 149 725.087 149.854 725.087 150.907C725.087 151.961 725.941 152.815 726.994 152.815Z" fill="white"/>
<path d="M711.959 233C713.012 233 713.866 232.146 713.866 231.093C713.866 230.039 713.012 229.185 711.959 229.185C710.907 229.185 710.053 230.039 710.053 231.093C710.053 232.146 710.907 233 711.959 233Z" fill="white"/>
<path d="M711.959 216.968C713.012 216.968 713.866 216.114 713.866 215.06C713.866 214.007 713.012 213.153 711.959 213.153C710.907 213.153 710.053 214.007 710.053 215.06C710.053 216.114 710.907 216.968 711.959 216.968Z" fill="white"/>
<path d="M711.959 200.911C713.012 200.911 713.866 200.057 713.866 199.004C713.866 197.951 713.012 197.097 711.959 197.097C710.907 197.097 710.053 197.951 710.053 199.004C710.053 200.057 710.907 200.911 711.959 200.911Z" fill="white"/>
<path d="M711.959 184.879C713.012 184.879 713.866 184.025 713.866 182.972C713.866 181.918 713.012 181.064 711.959 181.064C710.907 181.064 710.053 181.918 710.053 182.972C710.053 184.025 710.907 184.879 711.959 184.879Z" fill="white"/>
<path d="M711.959 168.847C713.012 168.847 713.866 167.993 713.866 166.94C713.866 165.886 713.012 165.032 711.959 165.032C710.907 165.032 710.053 165.886 710.053 166.94C710.053 167.993 710.907 168.847 711.959 168.847Z" fill="white"/>
<path d="M711.959 152.815C713.012 152.815 713.866 151.961 713.866 150.907C713.866 149.854 713.012 149 711.959 149C710.907 149 710.053 149.854 710.053 150.907C710.053 151.961 710.907 152.815 711.959 152.815Z" fill="white"/>
<path d="M696.949 233C698.002 233 698.856 232.146 698.856 231.093C698.856 230.039 698.002 229.185 696.949 229.185C695.897 229.185 695.043 230.039 695.043 231.093C695.043 232.146 695.897 233 696.949 233Z" fill="white"/>
<path d="M696.949 216.968C698.002 216.968 698.856 216.114 698.856 215.06C698.856 214.007 698.002 213.153 696.949 213.153C695.897 213.153 695.043 214.007 695.043 215.06C695.043 216.114 695.897 216.968 696.949 216.968Z" fill="white"/>
<path d="M696.949 200.911C698.002 200.911 698.856 200.057 698.856 199.004C698.856 197.951 698.002 197.097 696.949 197.097C695.897 197.097 695.043 197.951 695.043 199.004C695.043 200.057 695.897 200.911 696.949 200.911Z" fill="white"/>
<path d="M696.949 184.879C698.002 184.879 698.856 184.025 698.856 182.972C698.856 181.918 698.002 181.064 696.949 181.064C695.897 181.064 695.043 181.918 695.043 182.972C695.043 184.025 695.897 184.879 696.949 184.879Z" fill="white"/>
<path d="M696.949 168.847C698.002 168.847 698.856 167.993 698.856 166.94C698.856 165.886 698.002 165.032 696.949 165.032C695.897 165.032 695.043 165.886 695.043 166.94C695.043 167.993 695.897 168.847 696.949 168.847Z" fill="white"/>
<path d="M696.949 152.815C698.002 152.815 698.856 151.961 698.856 150.907C698.856 149.854 698.002 149 696.949 149C695.897 149 695.043 149.854 695.043 150.907C695.043 151.961 695.897 152.815 696.949 152.815Z" fill="white"/>
<path d="M156.049 744C157.102 744 157.956 743.146 157.956 742.093C157.956 741.039 157.102 740.185 156.049 740.185C154.996 740.185 154.143 741.039 154.143 742.093C154.143 743.146 154.996 744 156.049 744Z" fill="white"/>
<path d="M156.049 727.968C157.102 727.968 157.956 727.114 157.956 726.06C157.956 725.007 157.102 724.153 156.049 724.153C154.996 724.153 154.143 725.007 154.143 726.06C154.143 727.114 154.996 727.968 156.049 727.968Z" fill="white"/>
<path d="M156.049 711.911C157.102 711.911 157.956 711.057 157.956 710.004C157.956 708.951 157.102 708.097 156.049 708.097C154.996 708.097 154.143 708.951 154.143 710.004C154.143 711.057 154.996 711.911 156.049 711.911Z" fill="white"/>
<path d="M156.049 695.879C157.102 695.879 157.956 695.025 157.956 693.972C157.956 692.918 157.102 692.064 156.049 692.064C154.996 692.064 154.143 692.918 154.143 693.972C154.143 695.025 154.996 695.879 156.049 695.879Z" fill="white"/>
<path d="M156.049 679.847C157.102 679.847 157.956 678.993 157.956 677.94C157.956 676.886 157.102 676.032 156.049 676.032C154.996 676.032 154.143 676.886 154.143 677.94C154.143 678.993 154.996 679.847 156.049 679.847Z" fill="white"/>
<path d="M156.049 663.815C157.102 663.815 157.956 662.961 157.956 661.907C157.956 660.854 157.102 660 156.049 660C154.996 660 154.143 660.854 154.143 661.907C154.143 662.961 154.996 663.815 156.049 663.815Z" fill="white"/>
<path d="M141.039 744C142.092 744 142.946 743.146 142.946 742.093C142.946 741.039 142.092 740.185 141.039 740.185C139.986 740.185 139.133 741.039 139.133 742.093C139.133 743.146 139.986 744 141.039 744Z" fill="white"/>
<path d="M141.039 727.968C142.092 727.968 142.946 727.114 142.946 726.06C142.946 725.007 142.092 724.153 141.039 724.153C139.986 724.153 139.133 725.007 139.133 726.06C139.133 727.114 139.986 727.968 141.039 727.968Z" fill="white"/>
<path d="M141.039 711.911C142.092 711.911 142.946 711.057 142.946 710.004C142.946 708.951 142.092 708.097 141.039 708.097C139.986 708.097 139.133 708.951 139.133 710.004C139.133 711.057 139.986 711.911 141.039 711.911Z" fill="white"/>
<path d="M141.039 695.879C142.092 695.879 142.946 695.025 142.946 693.972C142.946 692.918 142.092 692.064 141.039 692.064C139.986 692.064 139.133 692.918 139.133 693.972C139.133 695.025 139.986 695.879 141.039 695.879Z" fill="white"/>
<path d="M141.039 679.847C142.092 679.847 142.946 678.993 142.946 677.94C142.946 676.886 142.092 676.032 141.039 676.032C139.986 676.032 139.133 676.886 139.133 677.94C139.133 678.993 139.986 679.847 141.039 679.847Z" fill="white"/>
<path d="M141.039 663.815C142.092 663.815 142.946 662.961 142.946 661.907C142.946 660.854 142.092 660 141.039 660C139.986 660 139.133 660.854 139.133 661.907C139.133 662.961 139.986 663.815 141.039 663.815Z" fill="white"/>
<path d="M126.005 744C127.058 744 127.911 743.146 127.911 742.093C127.911 741.039 127.058 740.185 126.005 740.185C124.952 740.185 124.099 741.039 124.099 742.093C124.099 743.146 124.952 744 126.005 744Z" fill="white"/>
<path d="M126.005 727.968C127.058 727.968 127.911 727.114 127.911 726.06C127.911 725.007 127.058 724.153 126.005 724.153C124.952 724.153 124.099 725.007 124.099 726.06C124.099 727.114 124.952 727.968 126.005 727.968Z" fill="white"/>
<path d="M126.005 711.911C127.058 711.911 127.911 711.057 127.911 710.004C127.911 708.951 127.058 708.097 126.005 708.097C124.952 708.097 124.099 708.951 124.099 710.004C124.099 711.057 124.952 711.911 126.005 711.911Z" fill="white"/>
<path d="M126.005 695.879C127.058 695.879 127.911 695.025 127.911 693.972C127.911 692.918 127.058 692.064 126.005 692.064C124.952 692.064 124.099 692.918 124.099 693.972C124.099 695.025 124.952 695.879 126.005 695.879Z" fill="white"/>
<path d="M126.005 679.847C127.058 679.847 127.911 678.993 127.911 677.94C127.911 676.886 127.058 676.032 126.005 676.032C124.952 676.032 124.099 676.886 124.099 677.94C124.099 678.993 124.952 679.847 126.005 679.847Z" fill="white"/>
<path d="M126.005 663.815C127.058 663.815 127.911 662.961 127.911 661.907C127.911 660.854 127.058 660 126.005 660C124.952 660 124.099 660.854 124.099 661.907C124.099 662.961 124.952 663.815 126.005 663.815Z" fill="white"/>
<path d="M110.995 744C112.048 744 112.901 743.146 112.901 742.093C112.901 741.039 112.048 740.185 110.995 740.185C109.942 740.185 109.089 741.039 109.089 742.093C109.089 743.146 109.942 744 110.995 744Z" fill="white"/>
<path d="M110.995 727.968C112.048 727.968 112.901 727.114 112.901 726.06C112.901 725.007 112.048 724.153 110.995 724.153C109.942 724.153 109.089 725.007 109.089 726.06C109.089 727.114 109.942 727.968 110.995 727.968Z" fill="white"/>
<path d="M110.995 711.911C112.048 711.911 112.901 711.057 112.901 710.004C112.901 708.951 112.048 708.097 110.995 708.097C109.942 708.097 109.089 708.951 109.089 710.004C109.089 711.057 109.942 711.911 110.995 711.911Z" fill="white"/>
<path d="M110.995 695.879C112.048 695.879 112.901 695.025 112.901 693.972C112.901 692.918 112.048 692.064 110.995 692.064C109.942 692.064 109.089 692.918 109.089 693.972C109.089 695.025 109.942 695.879 110.995 695.879Z" fill="white"/>
<path d="M110.995 679.847C112.048 679.847 112.901 678.993 112.901 677.94C112.901 676.886 112.048 676.032 110.995 676.032C109.942 676.032 109.089 676.886 109.089 677.94C109.089 678.993 109.942 679.847 110.995 679.847Z" fill="white"/>
<path d="M110.995 663.815C112.048 663.815 112.901 662.961 112.901 661.907C112.901 660.854 112.048 660 110.995 660C109.942 660 109.089 660.854 109.089 661.907C109.089 662.961 109.942 663.815 110.995 663.815Z" fill="white"/>
<path d="M95.9609 744C97.0138 744 97.8673 743.146 97.8673 742.093C97.8673 741.039 97.0138 740.185 95.9609 740.185C94.908 740.185 94.0544 741.039 94.0544 742.093C94.0544 743.146 94.908 744 95.9609 744Z" fill="white"/>
<path d="M95.9609 727.968C97.0138 727.968 97.8673 727.114 97.8673 726.06C97.8673 725.007 97.0138 724.153 95.9609 724.153C94.908 724.153 94.0544 725.007 94.0544 726.06C94.0544 727.114 94.908 727.968 95.9609 727.968Z" fill="white"/>
<path d="M95.9609 711.911C97.0138 711.911 97.8673 711.057 97.8673 710.004C97.8673 708.951 97.0138 708.097 95.9609 708.097C94.908 708.097 94.0544 708.951 94.0544 710.004C94.0544 711.057 94.908 711.911 95.9609 711.911Z" fill="white"/>
<path d="M95.9609 695.879C97.0138 695.879 97.8673 695.025 97.8673 693.972C97.8673 692.918 97.0138 692.064 95.9609 692.064C94.908 692.064 94.0544 692.918 94.0544 693.972C94.0544 695.025 94.908 695.879 95.9609 695.879Z" fill="white"/>
<path d="M95.9609 679.847C97.0138 679.847 97.8673 678.993 97.8673 677.94C97.8673 676.886 97.0138 676.032 95.9609 676.032C94.908 676.032 94.0544 676.886 94.0544 677.94C94.0544 678.993 94.908 679.847 95.9609 679.847Z" fill="white"/>
<path d="M95.9609 663.815C97.0138 663.815 97.8673 662.961 97.8673 661.907C97.8673 660.854 97.0138 660 95.9609 660C94.908 660 94.0544 660.854 94.0544 661.907C94.0544 662.961 94.908 663.815 95.9609 663.815Z" fill="white"/>
<path d="M80.9506 744C82.0035 744 82.857 743.146 82.857 742.093C82.857 741.039 82.0035 740.185 80.9506 740.185C79.8977 740.185 79.0442 741.039 79.0442 742.093C79.0442 743.146 79.8977 744 80.9506 744Z" fill="white"/>
<path d="M80.9506 727.968C82.0035 727.968 82.857 727.114 82.857 726.06C82.857 725.007 82.0035 724.153 80.9506 724.153C79.8977 724.153 79.0442 725.007 79.0442 726.06C79.0442 727.114 79.8977 727.968 80.9506 727.968Z" fill="white"/>
<path d="M80.9506 711.911C82.0035 711.911 82.857 711.057 82.857 710.004C82.857 708.951 82.0035 708.097 80.9506 708.097C79.8977 708.097 79.0442 708.951 79.0442 710.004C79.0442 711.057 79.8977 711.911 80.9506 711.911Z" fill="white"/>
<path d="M80.9506 695.879C82.0035 695.879 82.857 695.025 82.857 693.972C82.857 692.918 82.0035 692.064 80.9506 692.064C79.8977 692.064 79.0442 692.918 79.0442 693.972C79.0442 695.025 79.8977 695.879 80.9506 695.879Z" fill="white"/>
<path d="M80.9506 679.847C82.0035 679.847 82.857 678.993 82.857 677.94C82.857 676.886 82.0035 676.032 80.9506 676.032C79.8977 676.032 79.0442 676.886 79.0442 677.94C79.0442 678.993 79.8977 679.847 80.9506 679.847Z" fill="white"/>
<path d="M80.9506 663.815C82.0035 663.815 82.857 662.961 82.857 661.907C82.857 660.854 82.0035 660 80.9506 660C79.8977 660 79.0442 660.854 79.0442 661.907C79.0442 662.961 79.8977 663.815 80.9506 663.815Z" fill="white"/>
<path d="M65.9164 744C66.9693 744 67.8229 743.146 67.8229 742.093C67.8229 741.039 66.9693 740.185 65.9164 740.185C64.8635 740.185 64.01 741.039 64.01 742.093C64.01 743.146 64.8635 744 65.9164 744Z" fill="white"/>
<path d="M65.9164 727.968C66.9693 727.968 67.8229 727.114 67.8229 726.06C67.8229 725.007 66.9693 724.153 65.9164 724.153C64.8635 724.153 64.01 725.007 64.01 726.06C64.01 727.114 64.8635 727.968 65.9164 727.968Z" fill="white"/>
<path d="M65.9164 711.911C66.9693 711.911 67.8229 711.057 67.8229 710.004C67.8229 708.951 66.9693 708.097 65.9164 708.097C64.8635 708.097 64.01 708.951 64.01 710.004C64.01 711.057 64.8635 711.911 65.9164 711.911Z" fill="white"/>
<path d="M65.9164 695.879C66.9693 695.879 67.8229 695.025 67.8229 693.972C67.8229 692.918 66.9693 692.064 65.9164 692.064C64.8635 692.064 64.01 692.918 64.01 693.972C64.01 695.025 64.8635 695.879 65.9164 695.879Z" fill="white"/>
<path d="M65.9164 679.847C66.9693 679.847 67.8229 678.993 67.8229 677.94C67.8229 676.886 66.9693 676.032 65.9164 676.032C64.8635 676.032 64.01 676.886 64.01 677.94C64.01 678.993 64.8635 679.847 65.9164 679.847Z" fill="white"/>
<path d="M65.9164 663.815C66.9693 663.815 67.8229 662.961 67.8229 661.907C67.8229 660.854 66.9693 660 65.9164 660C64.8635 660 64.01 660.854 64.01 661.907C64.01 662.961 64.8635 663.815 65.9164 663.815Z" fill="white"/>
<path d="M50.9064 744C51.9593 744 52.8128 743.146 52.8128 742.093C52.8128 741.039 51.9593 740.185 50.9064 740.185C49.8535 740.185 49 741.039 49 742.093C49 743.146 49.8535 744 50.9064 744Z" fill="white"/>
<path d="M50.9064 727.968C51.9593 727.968 52.8128 727.114 52.8128 726.06C52.8128 725.007 51.9593 724.153 50.9064 724.153C49.8535 724.153 49 725.007 49 726.06C49 727.114 49.8535 727.968 50.9064 727.968Z" fill="white"/>
<path d="M50.9064 711.911C51.9593 711.911 52.8128 711.057 52.8128 710.004C52.8128 708.951 51.9593 708.097 50.9064 708.097C49.8535 708.097 49 708.951 49 710.004C49 711.057 49.8535 711.911 50.9064 711.911Z" fill="white"/>
<path d="M50.9064 695.879C51.9593 695.879 52.8128 695.025 52.8128 693.972C52.8128 692.918 51.9593 692.064 50.9064 692.064C49.8535 692.064 49 692.918 49 693.972C49 695.025 49.8535 695.879 50.9064 695.879Z" fill="white"/>
<path d="M50.9064 679.847C51.9593 679.847 52.8128 678.993 52.8128 677.94C52.8128 676.886 51.9593 676.032 50.9064 676.032C49.8535 676.032 49 676.886 49 677.94C49 678.993 49.8535 679.847 50.9064 679.847Z" fill="white"/>
<path d="M50.9064 663.815C51.9593 663.815 52.8128 662.961 52.8128 661.907C52.8128 660.854 51.9593 660 50.9064 660C49.8535 660 49 660.854 49 661.907C49 662.961 49.8535 663.815 50.9064 663.815Z" fill="white"/>
<defs>
<linearGradient id="paint0_linear_0_1" x1="825.5" y1="351.5" x2="447.5" y2="924" gradientUnits="userSpaceOnUse">
<stop stop-color="#5FC1CF"/>
<stop offset="1" stop-color="#1495A7"/>
</linearGradient>
<linearGradient id="paint1_linear_0_1" x1="183.115" y1="515.169" x2="581.996" y2="114.809" gradientUnits="userSpaceOnUse">
<stop stop-color="#2B388F"/>
<stop offset="1" stop-color="#26A9E0"/>
</linearGradient>
<clipPath id="clip0_0_1">
<rect width="416" height="586" fill="white" transform="translate(448.598 -46) rotate(44.894)"/>
</clipPath>
</defs>
</svg>
